<svg width="172" height="28" viewBox="0 0 172 28" fill="none" xmlns="http://www.w3.org/2000/svg">
<g clip-path="url(#clip0_326_1544)">
<path d="M165.149 5.68807H165.377C166.314 5.68807 166.8 5.33944 166.8 4.68807C166.8 4.08256 166.336 3.76146 165.422 3.76146H165.145V5.68348L165.149 5.68807ZM166.587 6.64678L168.834 9.56421H167.214L165.145 6.78899V9.5688H163.816V2.57798H165.213C166.182 2.57798 166.882 2.75229 167.342 3.09174C167.828 3.49999 168.065 4.02752 168.065 4.68348C168.065 5.11467 167.942 5.52293 167.674 5.8899C167.405 6.25229 167.069 6.50917 166.668 6.62385L166.582 6.65137L166.587 6.64678ZM165.95 0.880728C164.571 0.880728 163.402 1.38532 162.415 2.40825C161.446 3.43577 160.959 4.64678 160.959 6.04128C160.959 7.49541 161.451 8.711 162.42 9.7477C163.407 10.7615 164.594 11.2615 165.995 11.2615C167.383 11.2615 168.579 10.7569 169.557 9.74311C170.535 8.72018 171.013 7.49082 171.013 6.05963C171.013 5.2844 170.817 4.49541 170.444 3.66972C170.062 2.89449 169.566 2.28899 168.92 1.82568C168.033 1.19724 167.055 0.880728 165.954 0.880728H165.95ZM172.005 6.05963C172.005 7.73394 171.4 9.18348 170.244 10.367C169.079 11.5413 167.674 12.1468 166 12.1468C164.353 12.1468 162.915 11.5459 161.742 10.367C160.568 9.17431 159.981 7.73853 159.977 6.04587C159.977 5.1055 160.172 4.25229 160.55 3.49082C160.928 2.66054 161.469 1.95871 162.151 1.40366C163.284 0.449536 164.535 -0.0045929 165.927 -0.0045929C166.846 -0.0045929 167.678 0.169719 168.438 0.532104C169.503 0.986233 170.349 1.72935 171.004 2.75229C171.645 3.77064 172 4.88532 172 6.06421" fill="#23A6F0"/>
<path d="M26.7621 27.5413L24.1692 2.1055H15.7079C15.7079 2.1055 14.8436 6.03669 14.4114 8.5688C13.9565 11.3211 13.3606 15.7339 13.3606 15.7339C13.3606 15.7339 12.8511 11.3578 12.378 8.60091C12.0004 6.0688 11.2544 2.11467 11.2544 2.11467H2.87501L0 27.555H7.34673C7.34673 27.555 7.64242 22.7156 7.76525 19.6284C7.86533 16.5367 7.92901 11.6193 7.92901 11.6193C7.92901 11.6193 8.68416 16.5642 9.15271 19.6927C9.6804 22.7569 10.4992 27.5505 10.4992 27.5505H16.0536C16.0536 27.5505 17.0317 22.2431 17.6504 18.9312C18.1189 16.0734 18.8377 11.578 18.8377 11.578C18.8377 11.578 18.9332 16.0734 19.0788 18.867C19.2425 22.2431 19.661 27.5459 19.661 27.5459H26.7621" fill="#23A6F0"/>
<path d="M41.6148 8.1835V2.09634L29.0912 2.10093L29.1049 27.5413L41.5966 27.5321L41.5921 21.445L35.7738 21.4496L35.7693 17.6285L40.9961 17.6239V11.6009L35.7647 11.6055V8.18809L41.6148 8.1835Z" fill="#23A6F0"/>
<path d="M58.6283 8.17432L58.6238 2.08258L44.1623 2.09175L44.1668 8.1835L47.8834 8.17891L47.8971 27.5275L54.7434 27.5229L54.7343 8.17432H58.6283Z" fill="#23A6F0"/>
<path d="M119.149 15.2569V12.8303H109.66V18.1422H112.171V18.9129C112.171 20.3762 110.952 21.9312 109.833 21.8716C106.885 21.6835 107.262 16.4358 107.262 14.6697C107.221 12.0413 107.453 7.81194 110.055 7.73855C110.906 7.70644 111.911 8.76148 112.13 10.3028L118.589 7.83029L118.357 7.38075C116.406 3.17891 113.413 1.59634 109.914 1.59634C102.836 1.63763 100.111 8.61928 100.289 15.1009C100.38 21.3624 102.627 27.7661 110.092 27.9954C116.947 28.1835 119.149 21.3028 119.149 15.2569Z" fill="#23A6F0"/>
<path d="M153.249 19.2844C153.403 13.0917 146.803 11.8027 146.862 9.28439C146.862 8.62384 147.467 7.72017 148.631 7.75228C149.928 7.78898 151.074 8.62384 151.602 9.25228L152.58 10.3761V2.76604L151.729 2.36696C151.47 2.23393 149.246 1.51375 147.64 1.47246C143.186 1.42201 140.352 5.36237 140.17 9.922C139.934 15.7431 146.557 17.5963 146.525 19.656C146.525 20.3257 146.698 21.6238 144.578 21.8532C144.228 21.8807 142.249 21.8211 140.857 19.7936L140.27 18.9954V26.8073L141.207 27.1972C141.662 27.3899 143.737 27.9312 145.383 27.8899C150.692 27.7936 153.09 23.8303 153.253 19.2844" fill="#23A6F0"/>
<path d="M71.3748 10.4587C71.3475 12.0183 70.4558 13.7798 68.8955 13.7798H68.1358V7.46788H68.7681C70.0828 7.46788 71.3702 8.55962 71.3748 10.4587ZM79.1992 27.5092L74.1906 16.8715L74.8366 16.5321C77.2476 15.3532 78.0073 12.8899 78.0437 10.4587C78.1074 5.72934 76.1558 2.07797 68.013 2.08255H61.3577L61.3714 27.5229H68.1495V17.0963C68.1495 17.0963 69.546 21.2615 70.4968 23.8486C71.0199 25.2477 71.9252 27.5183 71.9252 27.5183H79.2037L79.1992 27.5092Z" fill="#23A6F0"/>
<path d="M91.2951 14.9587C91.2951 17.7982 90.7083 21.9449 88.6794 21.789C86.4595 21.6193 85.9227 17.6651 85.9591 14.7293C86 11.9128 86.7142 8.05962 88.6294 8.01834C90.8038 7.95412 91.2951 12.0826 91.2951 14.9633V14.9587ZM98.3826 15.1284C98.5145 8.52292 95.2574 1.38072 88.1381 1.61467C82.015 1.82109 79.04 8.5321 79.0445 14.6926C79.0445 21.055 81.7512 27.7982 88.5702 27.9633C95.2073 28.0917 98.2961 21.3715 98.3826 15.1238" fill="#23A6F0"/>
<path d="M130.335 18.9037H127.415L129.011 8.23395L130.335 18.9037ZM138.715 27.4771L133.228 2.04129H124.931L118.999 27.4862H125.964L126.596 24.2523H131.218L131.704 27.4771H138.715Z" fill="#23A6F0"/>
</g>
<defs>
<clipPath id="clip0_326_1544">
<rect width="172" height="28" fill="white"/>
</clipPath>
</defs>
</svg>
