<svg width="27" height="27" viewBox="0 0 27 27" fill="none" xmlns="http://www.w3.org/2000/svg">
<circle cx="13.5" cy="13.5" r="13.5" fill="#23A6F0"/>
<g clip-path="url(#clip0_229_1301)">
<path d="M11.3573 20C11.218 20 11.084 19.945 10.9769 19.8405L6.15548 14.8905C5.94655 14.676 5.94655 14.3295 6.15548 14.115C6.3644 13.9005 6.7019 13.9005 6.91083 14.115L11.7323 19.065C11.9412 19.2795 11.9412 19.626 11.7323 19.8405C11.6251 19.9505 11.4912 20 11.3519 20H11.3573Z" fill="white"/>
<path d="M11.3574 19.9997C11.2234 19.9997 11.0949 19.9502 10.9877 19.8512C10.7734 19.6422 10.7627 19.2957 10.9663 19.0757L20.0734 9.17016C20.277 8.95016 20.6145 8.93916 20.8288 9.14816C21.0431 9.35716 21.0538 9.70366 20.8502 9.92366L11.7484 19.8292C11.6413 19.9447 11.502 19.9997 11.3574 19.9997Z" fill="white"/>
</g>
<defs>
<clipPath id="clip0_229_1301">
<rect width="15" height="11" fill="white" transform="translate(6 9)"/>
</clipPath>
</defs>
</svg>
