<svg width="27" height="27" viewBox="0 0 27 27" fill="none" xmlns="http://www.w3.org/2000/svg">
<circle cx="13.5" cy="13.5" r="13.5" fill="#23A6F0"/>
<g clip-path="url(#clip0_229_1301)">
<path d="M13.004 8C7.83144 8 5.28473 12.9421 5.18191 13.1464L5 13.5L5.174 13.8536C5.28473 14.0579 7.83144 19 13.004 19C18.1765 19 20.7232 14.0579 20.826 13.8536L21 13.5L20.826 13.1464C20.7232 12.9421 18.1765 8 13.004 8ZM13.004 17.4286C9.53979 17.4286 7.46762 14.5214 6.79535 13.5C7.46762 12.4786 9.53979 9.57143 13.004 9.57143C16.4681 9.57143 18.5403 12.4786 19.2126 13.5C18.5403 14.5214 16.4681 17.4286 13.004 17.4286Z" fill="white"/>
<path d="M13.004 10.3574C11.2561 10.3574 9.84033 11.7639 9.84033 13.5003C9.84033 15.2367 11.2561 16.6431 13.004 16.6431C14.7518 16.6431 16.1676 15.2367 16.1676 13.5003C16.1676 11.7639 14.7518 10.3574 13.004 10.3574ZM13.004 15.0717C12.134 15.0717 11.4221 14.3646 11.4221 13.5003C11.4221 12.636 12.134 11.9289 13.004 11.9289C13.8739 11.9289 14.5858 12.636 14.5858 13.5003C14.5858 14.3646 13.8739 15.0717 13.004 15.0717Z" fill="white"/>
</g>
<defs>
<clipPath id="clip0_229_1301">
<rect width="16" height="11" fill="white" transform="translate(5 8)"/>
</clipPath>
</defs>
</svg>
