<svg width="27" height="27" viewBox="0 0 27 27" fill="none" xmlns="http://www.w3.org/2000/svg">
<circle cx="13.5" cy="13.5" r="13.5" fill="#23A6F0"/>
<g clip-path="url(#clip0_229_1301)">
<path d="M16.1562 12.9688C16.7433 12.9688 17.2184 12.4956 17.2184 11.9062C17.2184 11.3169 16.7433 10.8438 16.1562 10.8438C15.5692 10.8438 15.0931 11.3169 15.0931 11.9062C15.0931 12.4956 15.5652 12.9688 16.1562 12.9688ZM10.8139 12.9688C11.4049 12.9688 11.877 12.4956 11.877 11.9062C11.877 11.3169 11.4049 10.8438 10.8139 10.8438C10.2229 10.8438 9.7517 11.3169 9.7517 11.9062C9.7517 12.4956 10.2561 12.9688 10.8139 12.9688ZM16.2891 15.3793C15.5984 16.2094 14.5791 16.6875 13.5 16.6875C12.4209 16.6875 11.4012 16.2144 10.7096 15.38C10.428 15.0396 9.92568 14.9981 9.58768 15.2764C9.25 15.5589 9.20684 16.0603 9.48574 16.3986C10.4788 17.5939 11.9464 18.2822 13.5 18.2822C15.0536 18.2822 16.5195 17.5939 17.5143 16.3986C17.7998 16.0626 17.7513 15.5603 17.4137 15.278C17.076 14.9975 16.5713 15.0406 16.2891 15.3793ZM13.5 5C8.80508 5 5 8.80508 5 13.5C5 18.1949 8.80508 22 13.5 22C18.1949 22 22 18.1949 22 13.5C22 8.80508 18.1949 5 13.5 5ZM13.5 20.4062C9.6916 20.4062 6.59375 17.3081 6.59375 13.5C6.59375 9.69193 9.6916 6.59375 13.5 6.59375C17.3084 6.59375 20.4062 9.69193 20.4062 13.5C20.4062 17.3081 17.3084 20.4062 13.5 20.4062Z" fill="white"/>
</g>
<defs>
<clipPath id="clip0_229_1301">
<rect width="17" height="17" fill="white" transform="translate(5 5)"/>
</clipPath>
</defs>
</svg>
