<svg width="27" height="27" viewBox="0 0 27 27" fill="none" xmlns="http://www.w3.org/2000/svg">
<circle cx="13.5" cy="13.5" r="13.5" fill="#23A6F0"/>
<g clip-path="url(#clip0_229_1301)">
<path d="M12.9999 8.40024C10.5199 8.50224 8.53132 10.4742 8.42847 12.9336C8.4399 14.1349 8.90275 15.2909 9.73704 16.1636C10.3142 16.6226 10.6685 17.3026 10.7142 18.0336C10.7142 18.3452 10.9713 18.6002 11.2856 18.6002H14.7142C15.0285 18.6002 15.2856 18.3452 15.2856 18.0336C15.3199 17.3026 15.6742 16.6282 16.2513 16.1749C17.1199 15.3192 17.5942 14.1462 17.5713 12.9336C17.5713 11.6926 17.0685 10.5026 16.177 9.62991C15.3313 8.81391 14.1828 8.36624 12.9999 8.40024ZM15.4799 15.3589C14.8342 15.9029 14.3828 16.6452 14.1942 17.4669H11.8056C11.6228 16.6509 11.1828 15.9142 10.5485 15.3646C9.93132 14.7016 9.58275 13.8346 9.57132 12.9336C9.65704 11.0919 11.1428 9.61858 12.9999 9.53358C13.8799 9.50524 14.7313 9.82824 15.3599 10.4402C16.0399 11.0976 16.4228 11.9929 16.4285 12.9336C16.4513 13.8402 16.1028 14.7129 15.4628 15.3589H15.4799Z" fill="white"/>
<path d="M14.7144 19.167H11.2858C10.9715 19.167 10.7144 19.422 10.7144 19.7337C10.7144 20.0453 10.9715 20.3003 11.2858 20.3003H14.7144C15.0286 20.3003 15.2858 20.0453 15.2858 19.7337C15.2858 19.422 15.0286 19.167 14.7144 19.167Z" fill="white"/>
<path d="M14.1428 20.8662H11.8571C11.5428 20.8662 11.2856 21.1212 11.2856 21.4329C11.2856 21.7445 11.5428 21.9995 11.8571 21.9995H14.1428C14.4571 21.9995 14.7142 21.7445 14.7142 21.4329C14.7142 21.1212 14.4571 20.8662 14.1428 20.8662Z" fill="white"/>
<path d="M12.9999 7.26667C13.3142 7.26667 13.5713 7.01167 13.5713 6.7V5.56667C13.5713 5.255 13.3142 5 12.9999 5C12.6856 5 12.4285 5.255 12.4285 5.56667V6.7C12.4285 7.01167 12.6856 7.26667 12.9999 7.26667Z" fill="white"/>
<path d="M6.71429 12.3662H5.57143C5.25714 12.3662 5 12.6212 5 12.9329C5 13.2445 5.25714 13.4995 5.57143 13.4995H6.71429C7.02857 13.4995 7.28571 13.2445 7.28571 12.9329C7.28571 12.6212 7.02857 12.3662 6.71429 12.3662Z" fill="white"/>
<path d="M20.4286 12.3662H19.2858C18.9715 12.3662 18.7144 12.6212 18.7144 12.9329C18.7144 13.2445 18.9715 13.4995 19.2858 13.4995H20.4286C20.7429 13.4995 21.0001 13.2445 21.0001 12.9329C21.0001 12.6212 20.7429 12.3662 20.4286 12.3662Z" fill="white"/>
<path d="M18.6571 7.32298C18.4342 7.10198 18.0742 7.10198 17.8514 7.32298L17.0399 8.12198C16.8171 8.34298 16.8171 8.69998 17.0399 8.92098C17.1485 9.02864 17.2914 9.09098 17.4457 9.09098C17.5999 9.09098 17.7428 9.03431 17.8514 8.92664L18.6571 8.12198C18.8799 7.90098 18.8799 7.54398 18.6571 7.32298Z" fill="white"/>
<path d="M8.9601 8.92651C9.18295 8.70551 9.18295 8.34851 8.9601 8.12751L8.14867 7.32285C7.90867 7.11885 7.54867 7.14718 7.34295 7.38518C7.1601 7.59485 7.1601 7.91218 7.34295 8.12185L8.14867 8.92651C8.25724 9.03418 8.4001 9.09085 8.55438 9.09085C8.70867 9.09085 8.85152 9.03418 8.9601 8.92651Z" fill="white"/>
</g>
<defs>
<clipPath id="clip0_229_1301">
<rect width="16" height="17" fill="white" transform="translate(5 5)"/>
</clipPath>
</defs>
</svg>
