<svg width="39" height="36" viewBox="0 0 39 36" fill="none" xmlns="http://www.w3.org/2000/svg">
<path d="M1.5 36.0005C1.305 36.0005 1.11 35.9705 0.93 35.8805C0.375 35.6555 0 35.1005 0 34.5005V7.1705C0.09 3.1205 3.45 -0.0894956 7.5 0.000504421H31.5C35.55 -0.0894956 38.91 3.1205 39 7.1705V21.3305C38.91 25.3805 35.55 28.5905 31.5 28.5005H9.615L2.565 35.5655C2.28 35.8505 1.905 36.0005 1.5 36.0005ZM7.5 3.0005C5.115 2.9105 3.105 4.7855 3 7.1705V30.8855L7.935 25.9355C8.22 25.6505 8.595 25.5005 9 25.5005H31.5C33.885 25.5905 35.895 23.7155 36 21.3305V7.1705C35.895 4.7855 33.885 2.9105 31.5 3.0005H7.5Z" fill="#ffffff"/>
<path d="M19.5 16.5005C20.7426 16.5005 21.75 15.4931 21.75 14.2505C21.75 13.0078 20.7426 12.0005 19.5 12.0005C18.2574 12.0005 17.25 13.0078 17.25 14.2505C17.25 15.4931 18.2574 16.5005 19.5 16.5005Z" fill="#ffffff"/>
<path d="M27.75 16.5005C28.9926 16.5005 30 15.4931 30 14.2505C30 13.0078 28.9926 12.0005 27.75 12.0005C26.5074 12.0005 25.5 13.0078 25.5 14.2505C25.5 15.4931 26.5074 16.5005 27.75 16.5005Z" fill="#ffffff"/>
<path d="M11.25 16.5005C12.4926 16.5005 13.5 15.4931 13.5 14.2505C13.5 13.0078 12.4926 12.0005 11.25 12.0005C10.0074 12.0005 9 13.0078 9 14.2505C9 15.4931 10.0074 16.5005 11.25 16.5005Z" fill="#ffffff"/>
</svg>
