<svg width="64" height="64" viewBox="0 0 64 64" fill="none" xmlns="http://www.w3.org/2000/svg">
<g clip-path="url(#clip0_373_1808)">
<path d="M32.0015 64C14.354 64 0 49.646 0 32.0015C0 14.357 14.354 0 32.0015 0C49.649 0 64.003 14.354 64.003 32.0015C64.003 49.649 49.649 64.003 32.0015 64.003V64ZM32.0015 4.85239C17.0319 4.85239 4.85239 17.0319 4.85239 32.0015C4.85239 46.9711 17.0319 59.1506 32.0015 59.1506C46.9711 59.1506 59.1506 46.9711 59.1506 32.0015C59.1506 17.0319 46.9681 4.85239 32.0015 4.85239Z" fill="#23A6F0"/>
<path d="M24.4197 23.6916V40.308C24.4197 42.6917 27.0248 44.1626 29.0658 42.9313L42.8284 34.6216C44.8028 33.4297 44.8028 30.5668 42.8284 29.378L29.0658 21.0683C27.0248 19.837 24.4197 21.3048 24.4197 23.6916Z" fill="#23A6F0"/>
</g>
<defs>
<clipPath id="clip0_373_1808">
<rect width="64" height="64" fill="white"/>
</clipPath>
</defs>
</svg>
