<svg width="23" height="23" viewBox="0 0 23 23" fill="none" xmlns="http://www.w3.org/2000/svg">
    <g clip-path="url(#clip0_326_1760)">
        <path
            d="M15.2848 7.14117C15.2844 7.03314 15.1956 6.94508 15.0876 6.94549L13.4671 6.95906L11.0376 9.87796L8.58836 6.98016L6.96536 6.979C6.85732 6.97941 6.76926 7.06569 6.76968 7.17618C6.76986 7.22283 6.78722 7.26696 6.81682 7.30368L10.0258 11.0972L6.84591 14.9128C6.81638 14.9489 6.80009 14.994 6.79975 15.0406C6.80016 15.1487 6.88889 15.2367 6.99692 15.2363L8.61987 15.2227L11.0469 12.3038L13.4962 15.2016L15.1167 15.2028C15.2247 15.2024 15.3128 15.1161 15.3124 15.0056C15.3122 14.959 15.2949 14.9149 15.2652 14.8781L12.0612 11.087L15.2411 7.26902C15.2704 7.23453 15.285 7.18782 15.2848 7.14117Z"
            fill="#E77C40" />
        <path
            d="M10.9999 0.0419343C4.92541 0.0651557 0.0188287 5.00939 0.04205 11.0839C0.0652714 17.1584 5.00951 22.065 11.084 22.0418C17.1585 22.0186 22.0651 17.0743 22.0419 10.9998C22.0187 4.92529 17.0744 0.018713 10.9999 0.0419343ZM11.0769 20.1757C6.03362 20.195 1.92739 16.12 1.90811 11.0768C1.88883 6.0335 5.96379 1.92727 11.0071 1.90799C16.0503 1.88871 20.1566 5.96367 20.1758 11.0069C20.1951 16.0502 16.1202 20.1564 11.0769 20.1757Z"
            fill="#E77C40" />
    </g>
    <defs>
        <clipPath id="clip0_326_1760">
            <rect width="22" height="22" fill="white" transform="translate(0 0.0839844) rotate(-0.219027)" />
        </clipPath>
    </defs>
</svg>