<svg width="206" height="47" viewBox="0 0 206 47" fill="none" xmlns="http://www.w3.org/2000/svg">
<path d="M156.001 11.4989C155.851 11.6068 155.933 11.836 156.111 11.836H159.165V18.5109L183.19 17.7962V11.8495H186.367C186.518 11.8495 186.573 11.6607 186.449 11.5798L171.876 1.15621C171.465 0.85955 170.89 0.85955 170.479 1.15621L156.001 11.4989ZM169.369 9.31441H172.972V12.8609H169.369V9.31441Z" fill="#23A6F0"/>
<path d="M165.658 20.0886L164.179 23.2575L167.069 23.2845L165.658 20.0886Z" fill="#23A6F0"/>
<path d="M180.629 31.5506C180.629 31.2943 180.465 31.2 180.04 31.2H179.711V31.8877H180.067C180.492 31.8877 180.629 31.7933 180.629 31.5506Z" fill="#2349f0"/>
<path d="M177.657 20.1964L176.164 23.3653L179.067 23.3923L177.657 20.1964Z" fill="#23A6F0"/>
<path d="M180.204 33.8967H179.711V34.6249H180.218C180.738 34.6249 180.875 34.544 180.875 34.2743C180.875 34.0046 180.684 33.8967 180.204 33.8967Z" fill="#23A6F0"/>
<path d="M198.38 13.4271C181.341 14.9644 168.233 15.4768 161.618 16.2184C161.193 16.2589 160.796 16.3128 160.426 16.3668C159.714 16.4881 157.7 16.7983 155.413 17.7557C151.441 19.4278 146.633 23.0686 146.318 31.1864C146.318 31.1864 146.126 41.2324 156.988 44.6305C157.974 44.9407 159.056 45.1969 160.234 45.3857C161.07 45.5205 161.96 45.6284 162.905 45.6823C176.04 46.5049 190.737 36.9713 197.982 22.9607C198.695 21.5718 199.352 20.1559 199.914 18.6861C200.407 17.3916 200.859 16.0836 201.215 14.7351C201.667 13.036 199.708 13.3462 198.393 13.4406L198.38 13.4271ZM177.341 19.3603H178.013L180.848 25.6981H180.081L179.355 24.026L175.89 23.9991L175.123 25.6442H174.383L177.341 19.3603ZM171.616 22.7989C170.151 22.4753 169.493 22.0033 169.493 20.965C169.493 19.9671 170.397 19.2525 171.602 19.2659C172.534 19.2659 173.191 19.5356 173.835 20.0615L173.41 20.6009C172.821 20.1155 172.233 19.9132 171.589 19.8997C170.767 19.8997 170.233 20.3312 170.219 20.9111C170.219 21.5044 170.534 21.8415 171.931 22.1517C173.342 22.4753 173.999 22.9877 173.986 23.9451C173.986 25.0239 173.054 25.7116 171.794 25.6981C170.781 25.6981 169.959 25.3475 169.206 24.6733L169.658 24.1609C170.315 24.7542 170.945 25.0643 171.835 25.0643C172.685 25.0643 173.26 24.6328 173.26 23.9991C173.26 23.4057 172.945 23.0686 171.616 22.7854V22.7989ZM159.59 19.1311C160.741 19.1311 161.426 19.5491 162.056 20.1424L161.563 20.6549C161.029 20.1424 160.44 19.7918 159.577 19.7784C158.166 19.7784 157.111 20.8706 157.098 22.327C157.084 23.7833 158.139 24.9295 159.536 24.943C160.412 24.943 160.987 24.6193 161.59 24.053L162.056 24.5115C161.385 25.1722 160.659 25.6037 159.508 25.5902C157.673 25.5768 156.331 24.1339 156.358 22.327C156.372 20.5335 157.728 19.0906 159.604 19.1176L159.59 19.1311ZM158.426 34.6519C158.919 34.6519 159.412 34.4362 159.768 34.0586L160.083 33.735C160.33 33.4787 160.741 33.3034 161.124 33.3034C161.919 33.3034 162.617 33.9912 162.617 34.7463C162.617 35.2857 162.275 35.852 161.631 36.3914C160.741 37.1466 159.618 37.5781 158.454 37.5781C155.796 37.5781 153.646 35.488 153.646 32.8989C153.646 30.3099 155.81 28.1928 158.467 28.1928C159.577 28.1928 160.631 28.5703 161.508 29.285C162.248 29.8649 162.617 30.4717 162.617 31.0515C162.617 31.8606 161.946 32.5213 161.124 32.5213C160.768 32.5213 160.385 32.373 160.179 32.1573L159.741 31.6853C159.412 31.3347 158.933 31.1459 158.44 31.1459C157.44 31.1459 156.659 31.9145 156.659 32.8854C156.659 33.8563 157.454 34.6249 158.426 34.6249V34.6519ZM162.385 25.5228L165.343 19.2525H166.014L168.849 25.5902H168.082L167.356 23.9181L163.891 23.8912L163.124 25.5363H162.385V25.5228ZM168.48 37.0117C168.206 37.2544 167.891 37.3488 167.37 37.3488H164.508C163.905 37.3488 163.508 37.2005 163.234 36.8769C162.864 36.4723 162.823 36.2701 162.823 35.043V29.9997C162.823 28.9884 163.412 28.3411 164.302 28.3411C164.768 28.3411 165.22 28.5569 165.48 28.8805C165.754 29.2446 165.822 29.5143 165.822 30.3503V34.5845H167.288C167.795 34.5845 168.082 34.6654 168.356 34.8542C168.712 35.1104 168.932 35.5284 168.932 35.9599C168.932 36.351 168.754 36.769 168.466 37.0252L168.48 37.0117ZM176.355 33.4518C176.355 34.6654 176.054 35.5284 175.396 36.2566C174.657 37.0926 173.602 37.5781 172.52 37.5781C171.301 37.5781 170.151 36.9848 169.425 36.0273C168.863 35.2722 168.685 34.6519 168.685 33.4653V30.3099C168.685 29.4603 168.74 29.2446 169 28.9209C169.288 28.5703 169.753 28.3411 170.192 28.3411C170.603 28.3411 171.027 28.5299 171.301 28.8131C171.602 29.1232 171.712 29.4603 171.712 30.0941V33.6271C171.712 34.2743 172.013 34.6654 172.534 34.6654C173.054 34.6654 173.356 34.2878 173.356 33.6675V30.0941C173.356 29.4334 173.41 29.2311 173.684 28.9075C173.972 28.5569 174.397 28.3411 174.849 28.3411C175.301 28.3411 175.753 28.5569 176.027 28.8805C176.314 29.2176 176.383 29.4873 176.383 30.2829V33.4653L176.355 33.4518ZM182.971 36.6881C182.382 37.2275 181.957 37.3488 180.793 37.3488H178.41C177.752 37.3488 177.451 37.2544 177.122 36.9038C176.944 36.7151 176.807 36.4454 176.752 36.2026C176.752 36.0948 176.725 35.9869 176.725 35.407V29.9053C176.725 29.0153 177.383 28.395 178.259 28.395H179.547C180.519 28.395 180.848 28.422 181.204 28.5029C182.464 28.7996 183.3 29.8649 183.3 31.1864C183.3 31.6988 183.204 32.0089 182.875 32.5483C183.601 33.236 183.875 33.8293 183.875 34.6789C183.875 35.461 183.56 36.1352 182.957 36.6746L182.971 36.6881Z" fill="#23A6F0"/>
<g opacity="0.49">
<g opacity="0.49">
<path opacity="0.49" d="M202.091 23.7024C202.694 22.6102 203.242 21.4909 203.735 20.3448C204.433 18.7266 202.447 18.767 201.119 18.6861C200.694 18.6727 200.283 18.6457 199.872 18.6322C199.311 20.102 198.653 21.5179 197.941 22.9068C199.297 23.1765 200.667 23.4462 202.078 23.7159" fill="#23A6F0"/>
</g>
</g>
<g opacity="0.5">
<g opacity="0.5">
<path opacity="0.5" d="M202.995 23.8777C202.694 23.8238 202.393 23.7563 202.091 23.7024C200.776 26.1027 199.229 28.3411 197.503 30.4312C189.422 40.2211 177.396 46.3026 166.507 46.3026C165.836 46.3026 165.178 46.2487 164.507 46.1948C164.178 46.1678 163.836 46.1813 163.507 46.1408C165.219 46.4375 166.986 46.5858 168.794 46.5858C181.998 46.5858 197.119 38.8052 205.31 25.8869C206.255 24.3766 204.283 24.1474 202.981 23.8777" fill="#23A6F0"/>
</g>
</g>
<g opacity="0.7">
<g opacity="0.7">
<path opacity="0.7" d="M166.493 46.3028C177.368 46.3028 189.394 40.2212 197.489 30.4313C199.215 28.3412 200.762 26.1028 202.077 23.7025C200.667 23.4328 199.283 23.1631 197.927 22.8934C190.682 36.904 175.985 46.4511 162.85 45.615C161.905 45.5611 161.014 45.4532 160.179 45.3184C161.247 45.6555 162.357 45.9387 163.493 46.1409C163.822 46.1814 164.151 46.1679 164.493 46.1949C165.151 46.2353 165.822 46.3028 166.493 46.3028Z" fill="#23A6F0"/>
</g>
</g>
<path d="M27.3888 39.9783H39.0858V34.7597H33.6345V31.456H38.5243V26.2779H33.6345V23.3382H39.1269V18.1062H27.3888V39.9783Z" fill="#23A6F0"/>
<path d="M41.5103 23.3382H45.0029V39.9783H51.4267V23.3382H55.0701V18.1062H41.5103V23.3382Z" fill="#23A6F0"/>
<path d="M111.802 27.3703H102.913V31.955H105.255V32.6158C105.255 33.8833 104.105 35.2183 103.05 35.1644C100.297 34.9891 100.653 30.4987 100.653 28.9615C100.612 26.696 100.831 23.0687 103.283 23.0012C104.077 22.9608 105.009 23.8777 105.228 25.2127L111.282 23.0956L111.062 22.6911C109.227 19.0772 106.433 17.7018 103.146 17.7018C96.5028 17.7422 93.9415 23.7429 94.0922 29.3255C94.1881 34.7329 96.2837 40.2211 103.296 40.4234C109.72 40.5987 111.788 34.6789 111.788 29.4604V27.3703H111.802Z" fill="#23A6F0"/>
<path d="M137.785 24.3361C137.785 23.7697 138.36 23.0011 139.456 23.0146C140.661 23.0551 141.743 23.7697 142.236 24.3091L143.154 25.28V18.74L142.359 18.3894C142.113 18.268 140.045 17.6477 138.524 17.6208C134.347 17.5668 131.703 20.9649 131.512 24.889C131.306 29.9052 137.497 31.4964 137.47 33.2764C137.47 33.8428 137.634 34.962 135.648 35.1643C135.306 35.1912 133.457 35.1373 132.155 33.3843L131.594 32.6966V39.4119L132.47 39.7625C132.895 39.9243 134.84 40.3828 136.388 40.3558C141.36 40.2749 143.62 36.8498 143.77 32.9393C143.921 27.6263 137.744 26.5071 137.785 24.3361Z" fill="#23A6F0"/>
<path d="M70.2593 30.539C72.5193 29.5142 73.2315 27.3971 73.2726 25.307C73.3274 21.2481 71.492 18.1062 63.8629 18.1062H57.6172V39.9783H63.9862V31.0245C63.9862 31.0245 65.2874 34.5979 66.1777 36.8229C66.6708 38.0365 67.5063 39.9783 67.5063 39.9783H74.341L69.643 30.8357L70.2593 30.539ZM64.7121 28.1657H63.9999V22.7314H64.5889C65.8216 22.7314 67.0269 23.6754 67.0269 25.307C66.9995 26.6555 66.164 28.1657 64.7121 28.1657Z" fill="#23A6F0"/>
<path d="M82.7236 17.7017C76.9847 17.877 74.2042 23.6619 74.2042 28.9479C74.2042 34.2338 76.7381 40.248 83.1345 40.3828C89.3392 40.4907 92.2429 34.7193 92.3388 29.3389C92.462 23.6484 89.4076 17.4994 82.7236 17.6882V17.7017ZM83.2304 35.0564C81.1622 34.9081 80.6554 31.4965 80.6965 28.9883C80.7239 26.5611 81.4087 23.2439 83.1893 23.2169C85.2438 23.1495 85.6821 26.7094 85.6821 29.1906C85.6821 31.6718 85.1343 35.2047 83.2304 35.0564Z" fill="#23A6F0"/>
<path d="M117.226 18.0928L111.638 39.9783H118.185L118.774 37.214H123.102L123.568 39.9783H130.142L125.006 18.0928H117.226ZM119.541 32.6022L121.048 23.4192L122.294 32.6022H119.541Z" fill="#23A6F0"/>
<path d="M14.8425 18.1062C14.8425 18.1062 14.0344 21.4774 13.6235 23.6619C13.1989 26.0352 12.6373 29.8378 12.6373 29.8378C12.6373 29.8378 12.1579 26.0621 11.7196 23.6888C11.3772 21.5178 10.665 18.1062 10.665 18.1062H2.81672L0.0910645 39.9783H6.98054C6.98054 39.9783 7.25448 35.825 7.37775 33.1685C7.47363 30.5121 7.52841 26.2779 7.52841 26.2779C7.52841 26.2779 8.24065 30.539 8.66525 33.236C9.15833 35.8655 9.92535 39.9918 9.92535 39.9918H15.1301C15.1301 39.9918 16.0478 35.4474 16.6368 32.5887C17.0614 30.121 17.7599 26.2644 17.7599 26.2644C17.7599 26.2644 17.8421 30.1345 17.9791 32.5213C18.1297 35.4474 18.5269 39.9918 18.5269 39.9918H25.1836L22.7592 18.1062H14.8288H14.8425Z" fill="#23A6F0"/>
</svg>
