<?xml version="1.0" encoding="UTF-8"?><svg id="Layer_1" xmlns="http://www.w3.org/2000/svg" viewBox="0 0 48 48"><path d="M20,3H12c-1.1,0-2,.9-2,2h12c0-1.1-.9-2-2-2Z"/><path d="M36,3h-8c-1.1,0-2,.9-2,2h12c0-1.1-.9-2-2-2Z"/><path d="M38,7H10c-2.757,0-5,2.243-5,5v4H43v-4c0-2.757-2.243-5-5-5ZM12,14c-1.105,0-2-.895-2-2s.895-2,2-2,2,.895,2,2-.895,2-2,2Zm8,0c-1.105,0-2-.895-2-2s.895-2,2-2,2,.895,2,2-.895,2-2,2Zm8,0c-1.105,0-2-.895-2-2s.895-2,2-2,2,.895,2,2-.895,2-2,2Zm8,0c-1.105,0-2-.895-2-2s.895-2,2-2,2,.895,2,2-.895,2-2,2Z"/><rect x="11" y="28" width="26" height="12" rx="1" ry="1"/><path d="M5,18v22c0,2.757,2.243,5,5,5h28c2.757,0,5-2.243,5-5V18H5Zm6,3h26c.552,0,1,.448,1,1s-.448,1-1,1H11c-.552,0-1-.448-1-1s.448-1,1-1Zm28,18c0,1.657-1.343,3-3,3H12c-1.657,0-3-1.343-3-3v-10c0-1.657,1.343-3,3-3h24c1.657,0,3,1.343,3,3v10Z"/></svg>