<svg width="48" height="61" viewBox="0 0 48 61" fill="none" xmlns="http://www.w3.org/2000/svg">
<g clip-path="url(#clip0_373_1790)">
<path d="M47.3262 18.2741C47.3244 18.2552 47.3208 18.2364 47.3182 18.2176C47.3182 18.2149 47.3182 18.2113 47.3164 18.2086C47.2986 18.1207 47.2648 18.0391 47.2168 17.9664C47.1928 17.9296 47.1643 17.8955 47.1332 17.8641L29.492 0.198241L29.4902 0.196447C29.4902 0.196447 29.4866 0.192859 29.4848 0.191065C29.4715 0.17761 29.4573 0.164155 29.4422 0.152493C29.4386 0.149802 29.4351 0.147111 29.4315 0.14442C29.4182 0.133656 29.4039 0.122892 29.3897 0.113024C29.3861 0.11123 29.3835 0.109436 29.3799 0.106745C29.3648 0.0968781 29.3497 0.0879079 29.3337 0.0789377C29.331 0.0771437 29.3283 0.0762466 29.3257 0.0753496C29.3088 0.0663794 29.2919 0.0583062 29.275 0.0511301C29.2732 0.0511301 29.2714 0.0493361 29.2688 0.0493361C29.251 0.0421599 29.2323 0.0349838 29.2136 0.0296016C29.211 0.0296016 29.2083 0.0287046 29.2065 0.0278076C29.1887 0.0224255 29.17 0.0179404 29.1514 0.0134553C29.146 0.0125583 29.1407 0.0116612 29.1345 0.0107642C29.1185 0.00807317 29.1025 0.00538212 29.0865 0.00358808C29.066 0.00179404 29.0447 0.000897019 29.0242 0C29.0233 0 29.0215 0 29.0207 0H0.860308C0.492152 0 0.193359 0.301398 0.193359 0.672764V60.3272C0.193359 60.6986 0.492152 61 0.860308 61H46.6628C47.0309 61 47.3297 60.6986 47.3297 60.3272V18.3414C47.3297 18.3189 47.3288 18.2965 47.3262 18.2741ZM29.0767 1.67832L45.6543 18.2795H29.0767V1.67832ZM45.9958 59.6554H1.52726V1.34553H27.7428V18.3414C27.7428 19.0491 28.3155 19.625 29.0198 19.625H45.9958V59.6545V59.6554Z" fill="#23A6F0"/>
<path d="M37.3985 38.9683H10.9144C10.5462 38.9683 10.2474 39.2697 10.2474 39.641C10.2474 40.0124 10.5462 40.3138 10.9144 40.3138H37.3985C37.7666 40.3138 38.0654 40.0124 38.0654 39.641C38.0654 39.2697 37.7666 38.9683 37.3985 38.9683Z" fill="#23A6F0"/>
<path d="M10.2474 29.8241C10.2474 30.1955 10.5462 30.4969 10.9144 30.4969H37.3985C37.7666 30.4969 38.0654 30.1955 38.0654 29.8241C38.0654 29.4528 37.7666 29.1514 37.3985 29.1514H10.9144C10.5462 29.1514 10.2474 29.4528 10.2474 29.8241Z" fill="#23A6F0"/>
<path d="M37.3986 44.6265H10.9145C10.5464 44.6265 10.2476 44.9279 10.2476 45.2992C10.2476 45.6706 10.5464 45.972 10.9145 45.972H37.3986C37.7667 45.972 38.0655 45.6706 38.0655 45.2992C38.0655 44.9279 37.7667 44.6265 37.3986 44.6265Z" fill="#23A6F0"/>
<path d="M36.7027 41.524C36.6791 43.3549 36.16 45.2095 35.103 46.9035C34.9614 47.13 34.985 47.2433 35.169 47.4273C36.8773 49.1214 38.576 50.8202 40.2701 52.5237C41.2658 53.5288 41.162 55.0247 40.0578 55.8222C39.1989 56.4403 38.0758 56.3318 37.2736 55.539C35.9901 54.2697 34.716 52.9861 33.4419 51.712C33.0031 51.2732 32.5595 50.8391 32.1301 50.3908C31.9791 50.235 31.8753 50.2209 31.6865 50.3389C29.9028 51.4572 27.9586 51.9905 25.854 51.9574C21.0361 51.8866 16.7655 48.4183 15.7038 43.7183C14.3872 37.8811 18.0443 32.1665 23.8957 30.9066C29.6763 29.6655 35.4474 33.5397 36.5186 39.377C36.6366 40.0329 36.7027 40.6935 36.7027 41.5193V41.524ZM26.0616 48.7675C30.1623 48.7675 33.5033 45.4312 33.508 41.3306C33.508 37.2299 30.1812 33.8842 26.0805 33.8748C21.9657 33.8653 18.6153 37.211 18.6153 41.3258C18.6153 45.4218 21.961 48.7628 26.0569 48.7628L26.0616 48.7675Z" fill="#23A6F0"/>
</g>
<defs>
<clipPath id="clip0_373_1790">
<rect width="47.1364" height="61" fill="white" transform="translate(0.193359)"/>
</clipPath>
</defs>
</svg>
