<svg width="61" height="41" viewBox="0 0 61 41" fill="none" xmlns="http://www.w3.org/2000/svg">
<path d="M59.263 33.1362C58.3858 33.1705 57.5018 33.1431 56.6246 33.1431C56.1175 33.1431 55.864 32.8895 55.864 32.3824C55.864 23.5627 55.864 14.7361 55.864 5.91635C55.864 2.71603 53.7807 0.577915 50.6009 0.571062C37.4158 0.564209 24.2308 0.564209 11.0457 0.564209C9.84648 0.564209 8.7226 0.858885 7.76319 1.61956C6.35148 2.73659 5.78269 4.20997 5.78954 5.98488C5.80325 12.7145 5.78954 19.444 5.78954 26.1736C5.78954 28.2638 5.77584 30.3608 5.7964 32.4509C5.7964 32.958 5.70731 33.1979 5.13166 33.1499C4.4121 33.0951 3.68569 33.1362 2.95928 33.1362C0.985634 33.1431 0.773193 33.3624 0.773193 35.3223C0.786899 38.4952 2.8839 40.647 6.05681 40.6539C22.5655 40.6676 39.0811 40.6607 55.5898 40.6539C56.8782 40.6539 58.05 40.3181 59.0643 39.4752C60.0991 38.6186 60.5993 37.4878 60.8803 36.22V34.1093C60.5788 33.3829 60.0442 33.0951 59.263 33.1294V33.1362ZM8.29086 5.95062C8.29086 4.07291 9.26398 3.09294 11.1417 3.09294C24.2651 3.09294 37.3884 3.09294 50.5187 3.09294C52.3964 3.09294 53.3763 4.07291 53.3763 5.95062C53.3763 14.7909 53.3763 23.6312 53.39 32.4715C53.39 33.0745 53.1982 33.1568 52.6636 33.1568C45.3858 33.1362 38.108 33.1431 30.837 33.1431C23.5661 33.1431 16.2471 33.1431 8.94875 33.1568C8.40051 33.1568 8.28401 32.9992 8.28401 32.4715C8.29772 23.6312 8.29772 14.7909 8.29772 5.95062H8.29086ZM58.2625 36.3708C57.9678 37.3508 57.0975 38.0498 56.0627 38.1183C55.7886 38.1389 55.5145 38.1389 55.2403 38.1389C47.0853 38.1389 38.9235 38.1389 30.7685 38.1389C22.5518 38.1389 14.3352 38.1389 6.11848 38.1389C5.00831 38.1389 4.13113 37.7962 3.57604 36.7957C3.52807 36.7134 3.49381 36.6175 3.45269 36.5284C3.14431 35.7129 3.19228 35.6375 4.03519 35.6375C10.5112 35.6375 16.9872 35.6375 23.4633 35.6307C23.895 35.6307 24.2171 35.7198 24.4775 36.0624C24.9846 36.7271 25.6631 36.919 26.4854 36.9122C29.3979 36.8848 32.3173 36.8848 35.2298 36.9122C36.011 36.919 36.6552 36.7271 37.1349 36.1035C37.4227 35.7266 37.7791 35.6307 38.2519 35.6307C44.7485 35.6444 51.2451 35.6444 57.7348 35.6444C58.427 35.6444 58.4612 35.6924 58.2556 36.3708H58.2625Z" fill="#23A6F0"/>
</svg>
