<svg width="44" height="40" viewBox="0 0 44 40" fill="none" xmlns="http://www.w3.org/2000/svg">
<path d="M8.95637 22.8164C8.95637 23.3457 8.95637 23.8749 8.95637 24.4098C8.95637 24.8208 8.96763 25.2319 8.95637 25.6429C8.92258 26.3974 8.41585 26.8816 7.68389 26.8985C3.99035 26.966 0.572689 24.0044 0.161669 20.3334C-0.215569 16.9946 1.07943 14.444 3.91715 12.6592C4.03539 12.586 4.12548 12.5128 4.18178 12.3608C6.03418 7.41726 9.40117 3.8701 14.1983 1.74181C23.8488 -2.5373 35.1209 2.06837 39.0734 11.8596C39.2649 12.327 39.5126 12.6423 39.9292 12.9182C44.7376 16.0825 44.4054 23.2443 39.3268 25.9638C39.0622 26.1046 38.8932 26.2847 38.775 26.5606C37.7953 28.7565 36.4271 30.6821 34.693 32.3431C34.4677 32.557 34.4283 32.7034 34.6141 32.968C35.0026 33.5255 35.3123 34.1335 35.5882 34.7529C35.9035 35.451 35.6501 36.1774 34.997 36.4702C34.3608 36.7573 33.6851 36.4814 33.336 35.8058C33.1108 35.3666 32.8687 34.9331 32.6435 34.4939C32.5253 34.2574 32.4126 34.2067 32.1649 34.3756C30.5659 35.4679 28.8373 36.2844 26.9737 36.8192C26.7822 36.8755 26.6809 36.9713 26.619 37.1796C26.191 38.5365 25.0875 39.336 23.663 39.3473C22.3624 39.3529 21.0617 39.3529 19.7611 39.3473C18.0101 39.336 16.6813 38.041 16.6757 36.3519C16.67 34.6459 18.0044 33.3453 19.7836 33.3396C21.0561 33.3396 22.3286 33.3396 23.6011 33.3396C24.5076 33.3396 25.2958 33.6268 25.9152 34.3024C26.0728 34.4714 26.2079 34.4714 26.3994 34.4151C27.9083 33.9477 29.3216 33.2833 30.6447 32.4219C30.8755 32.2699 30.8924 32.1854 30.6897 31.994C29.9578 31.2845 29.1526 30.6652 28.2856 30.1191C28.0998 30.0008 27.9365 29.9727 27.745 30.1022C27.593 30.2035 27.4185 30.2767 27.2552 30.3499C26.4219 30.744 25.7068 30.5582 25.369 29.8601C25.0481 29.19 25.3521 28.5031 26.1629 28.1203C27.334 27.5628 28.4038 26.8478 29.2878 25.8963C32.2268 22.7489 33.1896 19.0609 31.8609 14.9676C30.5265 10.8631 27.593 8.35753 23.3252 7.62558C17.3682 6.60085 11.7378 10.7448 10.8594 16.7018C10.0712 22.0563 13.3368 27.1631 18.5168 28.6889C18.6407 28.7227 18.7589 28.7565 18.8828 28.8015C19.5697 29.038 19.9244 29.6855 19.7386 30.3386C19.5528 30.9861 18.8884 31.3634 18.1902 31.1832C17.3006 30.9524 16.4279 30.6539 15.6228 30.2035C15.2624 30.0008 15.0034 30.0402 14.6656 30.2598C12.7344 31.5267 11.2029 33.1538 10.1388 35.2089C9.91917 35.6312 9.64328 35.9747 9.1478 36.0535C8.64669 36.1323 8.21878 35.9803 7.92037 35.558C7.62196 35.1414 7.6107 34.6909 7.83591 34.2349C8.44963 33.0018 9.23226 31.8757 10.1556 30.8566C10.9101 30.0233 11.7378 29.2801 12.6555 28.6326C12.8188 28.5144 12.9596 28.4468 12.7231 28.2385C11.0734 26.7746 9.87412 25.001 9.08587 22.9403C9.06897 22.8952 9.0746 22.822 8.94511 22.8277L8.95637 22.8164ZM34.4734 14.5791C34.4734 14.0274 34.4621 13.4812 34.4734 12.9294C34.4959 12.1186 35.0252 11.6288 35.8359 11.6232C35.9542 11.6232 36.0837 11.6907 36.1907 11.5894C33.7696 6.54454 27.9815 2.333 21.0336 2.63704C13.7816 2.95234 8.90006 7.8508 7.23346 11.6344C7.81339 11.5838 8.34828 11.6457 8.71426 12.1581C9.0746 12.6535 8.88317 13.2447 8.97326 13.7852C11.5914 7.89584 16.0169 4.61331 22.5425 5.04686C28.5558 5.44661 32.3901 8.96562 34.4621 14.5735L34.4734 14.5791ZM36.9733 19.2411C36.9733 20.7951 36.9789 22.3491 36.9676 23.9031C36.9676 24.2128 37.0577 24.2409 37.328 24.1565C39.3718 23.5202 40.8639 21.4764 40.8751 19.2749C40.8864 17.079 39.4112 15.0465 37.3505 14.3764C37.0296 14.2751 36.9676 14.3483 36.9676 14.658C36.9789 16.1838 36.9676 17.7096 36.9676 19.2355L36.9733 19.2411ZM6.45646 19.2862C6.45646 17.7603 6.4452 16.2345 6.4621 14.7086C6.4621 14.3539 6.39453 14.2751 6.03981 14.3933C3.98472 15.0915 2.54896 17.0959 2.55459 19.2749C2.56022 21.4595 4.01287 23.4639 6.06234 24.1452C6.36638 24.2465 6.46773 24.224 6.46773 23.858C6.45083 22.3322 6.4621 20.8064 6.4621 19.2805L6.45646 19.2862ZM34.4734 21.9606C34.4058 22.0169 34.372 22.0282 34.3664 22.0451C33.6232 24.4774 32.3282 26.5606 30.4251 28.2554C30.2393 28.4243 30.3294 28.4919 30.4758 28.5932C31.264 29.145 31.996 29.7643 32.6548 30.4681C32.8011 30.6258 32.9081 30.6427 33.0601 30.4738C33.3811 30.1134 33.7302 29.7812 34.0398 29.4209C34.7042 28.6495 35.2954 27.8331 35.7909 26.9266C34.8056 26.7408 34.4734 26.3411 34.4677 25.3614C34.4677 24.8546 34.4677 24.3423 34.4677 23.8355C34.4677 23.2218 34.4677 22.6081 34.4677 21.955L34.4734 21.9606ZM21.7149 36.8587C22.3511 36.8587 22.9817 36.8587 23.6179 36.8587C23.9501 36.8587 24.2148 36.7629 24.2542 36.3913C24.288 36.0535 24.0402 35.8396 23.6123 35.8339C22.3455 35.8283 21.073 35.8339 19.8062 35.8339C19.4571 35.8339 19.1699 35.9522 19.1756 36.3519C19.1756 36.7517 19.4627 36.8643 19.8118 36.8643C20.448 36.8643 21.0786 36.8643 21.7149 36.8643V36.8587Z" fill="#ffffff"/>
<path d="M21.6246 25.4452C20.2339 25.4283 18.9558 25.0398 17.8185 24.229C17.2048 23.7898 17.0584 23.0691 17.4525 22.4836C17.8466 21.898 18.5786 21.7573 19.2036 22.1739C20.7857 23.2212 22.3566 23.2493 23.95 22.1852C24.5975 21.7516 25.3463 21.8924 25.7348 22.4948C26.129 23.0973 25.9544 23.818 25.3125 24.2628C24.2034 25.0229 22.9816 25.4508 21.6246 25.4452Z" fill="#ffffff"/>
</svg>
