<svg width="93" height="97" viewBox="0 0 93 97" fill="none" xmlns="http://www.w3.org/2000/svg">
<path d="M92.4027 45.5059C92.4027 44.4833 91.8908 43.5459 91.0376 43.1198C90.355 42.8642 89.9284 42.7789 89.2458 43.3755C88.5633 43.972 88.222 45.0798 88.1367 46.1024C87.2835 57.5215 83.0174 66.2137 74.7413 74.0537C70.9018 77.6329 67.0624 79.4224 62.1991 81.0415C61.0046 81.4676 59.0422 81.6381 57.677 81.8937C58.5302 80.2746 59.7247 78.2294 60.578 76.7807C61.0899 76.0137 61.4312 75.4172 61.6871 74.9059C62.455 73.4572 62.5403 72.3494 61.2605 71.4972C60.322 70.9007 59.4688 71.2415 58.7009 71.8381C58.5303 72.0085 58.2743 72.2642 58.1036 72.5198C57.933 72.7755 57.5064 73.372 57.3358 73.6276C55.1174 76.8659 52.9844 80.2746 51.1073 83.6833C50.766 84.2798 50.766 85.5581 50.9367 85.8137C53.8376 89.7337 56.9091 93.0572 60.1513 96.4659C60.4926 96.892 60.7486 96.9772 61.3458 96.9772C61.8578 96.9772 62.5403 96.8068 62.9669 96.2955C63.7348 95.3581 63.8202 94.4207 62.9669 93.3129C62.3697 92.6311 61.6871 91.8642 61.0046 91.0972C60.6633 90.6711 60.2367 90.245 59.7247 89.7337C59.0422 88.9668 58.0183 87.9442 57.3358 87.1772C58.3596 86.8363 59.7247 86.4102 60.7486 86.0694C61.1752 85.8989 61.3458 85.8989 61.6018 85.8137C62.1137 85.6433 62.3697 85.5581 62.7963 85.3876C72.6936 81.9789 79.6046 76.8659 85.7477 68.0885C90.355 61.5268 92.3174 53.8572 92.4027 45.5059Z" fill="#F08800"/>
<path d="M25.3403 79.0818C26.1935 79.6783 27.2174 79.7635 28.0706 79.3374C28.6679 78.9966 29.0091 78.5705 28.8385 77.7183C28.7532 76.8661 28.0706 75.9287 27.2174 75.247C18.344 68.0035 13.7367 59.4818 12.0302 48.1479C11.2623 42.9496 12.0302 38.7739 13.566 33.8313C13.9073 32.6383 14.9312 30.9339 15.4431 29.6557C16.211 31.2748 17.2348 33.4905 17.9174 34.9392C18.344 35.7913 18.5146 36.3879 18.7706 36.8992C19.5385 38.3479 20.3064 39.0296 21.8422 38.5183C22.866 38.1774 23.0367 37.24 23.0367 36.2174C23.0367 35.9618 22.9513 35.6209 22.7807 35.28C22.6954 34.9392 22.4394 34.3426 22.2688 34.0018C20.9036 30.3374 19.2825 26.5879 17.6614 23.0939C17.4055 22.4974 16.2963 21.7305 15.955 21.7305C11.0917 21.8157 6.56969 22.4122 1.96235 23.0939C1.45042 23.1792 1.19446 23.3496 0.853174 23.7757C0.51189 24.2018 0.341248 24.8835 0.51189 25.5653C0.853174 26.7583 1.62106 27.3548 2.9862 27.2696C3.92473 27.2696 4.86327 27.0139 5.88712 26.9287C6.39905 26.8435 6.99629 26.7583 7.76418 26.6731C8.78804 26.5026 10.1532 26.3322 11.2623 26.1618C10.9211 27.2696 10.4945 28.5479 10.1532 29.5705C10.0679 29.9966 9.98253 30.167 9.89721 30.4226C9.81189 30.9339 9.64125 31.1896 9.55593 31.6157C6.74033 41.7566 6.91097 50.3635 10.4945 60.334C13.3101 68.174 18.5146 74.1392 25.3403 79.0818Z" fill="#F08800"/>
<path d="M30.1184 6.39158C29.1798 6.90289 28.6679 7.75506 28.7532 8.77767C28.8385 9.45941 29.0092 9.88549 29.8624 10.1411C30.7156 10.3968 31.8248 10.2264 32.7633 9.71506C43.1725 4.85767 52.8991 4.26115 63.8202 7.58462C68.8541 9.11854 72.267 11.5898 76.1064 15.0838C77.045 15.9359 78.1541 17.5551 79.0927 18.5777C77.3009 18.5777 74.9119 18.5777 73.2055 18.5777C72.267 18.5777 71.6697 18.4924 71.0725 18.5777C69.4514 18.6629 68.4275 19.089 68.3422 20.7081C68.2569 21.8159 69.0248 22.3272 69.9633 22.7533C70.2193 22.8385 70.5606 22.9238 70.9018 22.9238C71.2431 22.9238 71.9257 23.009 72.267 23.009C76.1918 23.3498 80.2018 23.5203 84.0413 23.5203C84.7239 23.5203 85.833 22.9238 86.0037 22.5829C87.9661 18.1516 89.3312 13.8055 90.6963 9.28897C90.867 8.77767 90.7817 8.52202 90.5257 8.01071C90.2697 7.49941 89.7578 7.07332 89.0752 6.90289C87.8807 6.64723 87.0275 7.15854 86.5156 8.35158C86.1743 9.20375 85.9184 10.1411 85.5771 11.1638C85.4064 11.6751 85.2358 12.2716 85.0651 12.9533C84.8092 13.8907 84.3826 15.3394 84.0413 16.362C83.1881 15.5951 82.2496 14.6577 81.3963 13.9759C81.0551 13.7203 80.8844 13.5498 80.7138 13.3794C80.2872 13.0385 80.1165 12.7829 79.7752 12.5272C71.9257 5.45419 63.9908 1.96028 53.411 1.02289C45.1349 0.255929 37.456 2.38636 30.1184 6.39158Z" fill="#F08800"/>
<path d="M51.3633 68.3447C51.7899 68.0038 52.0458 67.4925 52.0458 66.9812V61.4421C56.3119 60.8456 64.9293 58.2038 64.3321 45.8473C63.6495 33.1499 55.4587 24.3725 51.9605 21.1342C51.022 20.2821 49.5715 20.2821 48.633 21.1342C45.1348 24.3725 36.944 33.1499 36.2614 45.8473C35.5789 58.2038 44.2816 60.8456 48.5477 61.4421V66.9812C48.5477 67.8334 49.0596 68.5151 49.8275 68.7708C49.9981 68.7708 50.1688 68.856 50.2541 68.856C50.6807 68.7708 51.022 68.6003 51.3633 68.3447ZM47.1825 32.2977C46.7559 32.7238 46.7559 33.4056 47.1825 33.8316L48.889 35.6212V40.4786L47.5238 39.2003C47.0119 38.689 46.0734 38.689 45.5614 39.2003C45.0495 39.7116 45.0495 40.649 45.5614 41.1603L48.889 44.569V50.2786L43.9403 45.336C43.4284 44.8247 42.4899 44.8247 41.9779 45.336C41.466 45.8473 41.466 46.7847 41.9779 47.296L48.889 54.369V58.8003C47.2679 58.5447 44.7082 57.9482 42.6605 56.2438C39.9302 54.0282 38.6504 50.5342 38.9064 45.8473C39.4183 35.3656 45.7321 27.6108 49.4009 23.8612C49.6568 23.6056 49.9981 23.4351 50.3394 23.4351C50.6807 23.4351 51.022 23.6056 51.2779 23.8612C54.9468 27.5256 61.2605 35.2803 61.7724 45.8473C62.0284 50.5342 60.7486 54.0282 58.0183 56.2438C55.8853 57.9482 53.2403 58.5447 51.6192 58.8003V54.1986L58.2743 47.3812C58.7862 46.8699 58.7862 45.9325 58.2743 45.4212C57.7624 44.9099 56.8238 44.9099 56.3119 45.4212L51.6192 50.2786V44.569L54.8614 41.3308C55.3734 40.8195 55.3734 39.8821 54.8614 39.3708C54.3495 38.8595 53.411 38.8595 52.899 39.3708L51.5339 40.7342V35.6212L53.2403 33.9169C53.411 33.7464 53.5816 33.4056 53.5816 33.1499C53.5816 32.8942 53.4963 32.5534 53.2403 32.3829C52.8137 31.9569 52.1312 31.9569 51.7046 32.3829L51.5339 32.5534V30.0821C51.5339 29.4003 51.022 28.7186 50.3394 28.6334C49.9128 28.5482 49.5715 28.7186 49.2302 28.9742C48.889 29.2299 48.7183 29.656 48.7183 29.9969V32.3829L48.633 32.2977C48.2917 31.9569 47.5238 31.9569 47.1825 32.2977Z" fill="white"/>
</svg>

