<svg width="68" height="75" viewBox="0 0 68 75" fill="none" xmlns="http://www.w3.org/2000/svg">
<g clip-path="url(#clip0_398_1502)">
<path d="M67.3946 33.9607C67.3946 31.8442 65.7963 30.0927 63.7379 29.8494V18.4157C63.7379 14.4018 60.4686 11.1176 56.4729 11.1176H54.5598V6.10629C54.5598 3.06542 52.1139 0.608398 49.0869 0.608398C46.0598 0.608398 43.6139 3.06542 43.6139 6.10629V11.1176H24.3618V6.10629C24.3618 3.06542 21.9159 0.608398 18.8889 0.608398C15.8618 0.608398 13.4159 3.06542 13.4159 6.10629V11.1176H11.5028C7.5071 11.1176 4.23787 14.4018 4.23787 18.4157V29.8737C2.17947 30.117 0.581177 31.8442 0.581177 33.985C0.581177 36.1258 2.17947 37.853 4.23787 38.0962V67.1183C4.23787 71.1322 7.5071 74.4164 11.5028 74.4164H56.4729C60.4686 74.4164 63.7379 71.1322 63.7379 67.1183V38.0719C65.7963 37.8286 67.3946 36.1014 67.3946 33.9607ZM45.4786 6.10629C45.4786 4.11148 47.1011 2.48157 49.0869 2.48157C51.0726 2.48157 52.6951 4.11148 52.6951 6.10629V11.1176H45.4544V6.10629H45.4786ZM15.2806 6.10629C15.2806 4.11148 16.9031 2.48157 18.8889 2.48157C20.8746 2.48157 22.4971 4.11148 22.4971 6.10629V11.1176H15.2564V6.10629H15.2806ZM11.5028 12.9908H56.4729C59.4515 12.9908 61.8732 15.4235 61.8732 18.4157V29.8251H6.12676V18.4157C6.12676 15.4235 8.54841 12.9908 11.527 12.9908H11.5028ZM61.8974 67.094C61.8974 70.0862 59.4758 72.5189 56.4971 72.5189H11.527C8.54841 72.5189 6.12676 70.0862 6.12676 67.094V38.2179H61.8974V67.1183V67.094ZM63.2778 36.2474H4.74642C3.48716 36.2474 2.47007 35.2257 2.47007 33.9607C2.47007 32.6957 3.48716 31.6739 4.74642 31.6739H63.2535C64.5128 31.6739 65.5299 32.6957 65.5299 33.9607C65.5299 35.2257 64.5128 36.2474 63.2535 36.2474H63.2778Z" fill="#23A6F0"/>
<path d="M56.4729 75H11.5271C7.19231 75 3.65669 71.4483 3.65669 67.0937V38.5826C1.54986 38.0717 0 36.1742 0 33.9604C0 31.7467 1.52564 29.8492 3.65669 29.3383V18.4155C3.65669 14.061 7.19231 10.5092 11.5271 10.5092H12.8348V6.10607C12.8348 2.74895 15.5712 0 18.9131 0C22.255 0 24.9915 2.74895 24.9915 6.10607V10.5092H43.0328V6.10607C43.0328 2.74895 45.7692 0 49.1111 0C52.453 0 55.1895 2.74895 55.1895 6.10607V10.5092H56.4971C60.8319 10.5092 64.3675 14.061 64.3675 18.4155V29.3626C66.4744 29.8735 68.0242 31.771 68.0242 33.9848C68.0242 36.1985 66.4986 38.096 64.3675 38.6069V67.1181C64.3675 71.4726 60.8319 75.0243 56.4971 75.0243L56.4729 75ZM11.5271 11.7256C7.84615 11.7256 4.86752 14.7178 4.86752 18.4155V30.4087L4.33476 30.4817C2.56695 30.7006 1.21083 32.2089 1.21083 33.9848C1.21083 35.7606 2.54273 37.2689 4.33476 37.4878L4.86752 37.5608V67.1181C4.86752 70.8158 7.84615 73.808 11.5271 73.808H56.4729C60.1538 73.808 63.1325 70.8158 63.1325 67.1181V37.5365L63.6652 37.4635C65.433 37.2446 66.7892 35.7363 66.7892 33.9604C66.7892 32.1846 65.4573 30.6763 63.6652 30.4573L63.1325 30.3844V18.4155C63.1325 14.7178 60.1538 11.7256 56.4729 11.7256H53.9544V6.10607C53.9544 3.40577 51.7749 1.21635 49.0869 1.21635C46.3989 1.21635 44.2194 3.40577 44.2194 6.10607V11.7256H23.7806V6.10607C23.7806 3.40577 21.6011 1.21635 18.9131 1.21635C16.2251 1.21635 14.0456 3.40577 14.0456 6.10607V11.7256H11.5271ZM56.4729 73.1268H11.5271C8.2094 73.1268 5.52137 70.4265 5.52137 67.0937V37.6095H62.5028V67.1181C62.5028 70.4509 59.8148 73.1512 56.4971 73.1512L56.4729 73.1268ZM6.73219 38.8258V67.1181C6.73219 69.7697 8.88746 71.9348 11.5271 71.9348H56.4729C59.1125 71.9348 61.2678 69.7697 61.2678 67.1181V38.8258H6.73219ZM63.2778 36.8797H4.74644C3.14815 36.8797 1.86467 35.5903 1.86467 33.9848C1.86467 32.3792 3.14815 31.0898 4.74644 31.0898H63.2536C64.8519 31.0898 66.1353 32.3792 66.1353 33.9848C66.1353 35.5903 64.8519 36.8797 63.2536 36.8797H63.2778ZM4.74644 32.2819C3.82621 32.2819 3.0755 33.036 3.0755 33.9604C3.0755 34.8849 3.82621 35.639 4.74644 35.639H63.2536C64.1738 35.639 64.9245 34.8849 64.9245 33.9604C64.9245 33.036 64.1738 32.2819 63.2536 32.2819H4.74644ZM62.5028 30.4087H5.52137V18.4155C5.52137 15.0827 8.2094 12.3824 11.5271 12.3824H56.4729C59.7906 12.3824 62.4786 15.0827 62.4786 18.4155V30.433L62.5028 30.4087ZM6.73219 29.1923H61.292V18.4155C61.292 15.7639 59.1367 13.5988 56.4971 13.5988H11.5271C8.88746 13.5988 6.73219 15.7639 6.73219 18.4155V29.2167V29.1923ZM53.3248 11.7256H44.8732V6.10607C44.8732 3.77068 46.7621 1.87318 49.0869 1.87318C51.4117 1.87318 53.3006 3.77068 53.3006 6.10607V11.7256H53.3248ZM46.084 10.5092H52.114V6.10607C52.114 4.42751 50.7578 3.08952 49.1111 3.08952C47.4644 3.08952 46.1083 4.45183 46.1083 6.10607V10.5092H46.084ZM23.1268 11.7256H14.6752V6.10607C14.6752 3.77068 16.5641 1.87318 18.8889 1.87318C21.2137 1.87318 23.1026 3.77068 23.1026 6.10607V11.7256H23.1268ZM15.886 10.5092H21.916V6.10607C21.916 4.42751 20.5598 3.08952 18.9131 3.08952C17.2664 3.08952 15.9103 4.45183 15.9103 6.10607V10.5092H15.886Z" fill="#23A6F0"/>
<path d="M56.0371 17.3208H11.963V25.8352H56.0371V17.3208ZM30.2223 18.9507H37.7778V24.2053H30.2223V18.9507ZM28.9872 24.2053H21.4317V18.9507H28.9872V24.2053ZM39.0129 18.9507H46.5684V24.2053H39.0129V18.9507ZM13.6097 18.9507H20.1966V24.2053H13.6097V18.9507ZM54.4146 24.2053H47.8277V18.9507H54.4146V24.2053Z" fill="#23A6F0"/>
<path d="M56.5699 26.3705H11.4545V16.7856H56.5699V26.3705ZM12.52 25.3001H55.5043V17.856H12.4958V25.3001H12.52ZM54.9473 24.7162H47.2949V18.4156H54.9473V24.7162ZM48.3604 23.6458H53.906V19.4616H48.3604V23.6458ZM47.1254 24.7162H38.5043V18.4156H47.1254V24.7162ZM39.5699 23.6458H46.0841V19.4616H39.5699V23.6458ZM38.3348 24.7162H29.7137V18.4156H38.3348V24.7162ZM30.7793 23.6458H37.2935V19.4616H30.7793V23.6458ZM29.5442 24.7162H20.9231V18.4156H29.5442V24.7162ZM21.9887 23.6458H28.5029V19.4616H21.9887V23.6458ZM20.7536 24.7162H13.1012V18.4156H20.7536V24.7162ZM14.1667 23.6458H19.7123V19.4616H14.1667V23.6458Z" fill="#23A6F0"/>
<path d="M34.0001 70.6211C42.3063 70.6211 49.0627 63.8339 49.0627 55.4898C49.0627 47.1456 42.3063 40.3584 34.0001 40.3584C25.6938 40.3584 18.9374 47.1456 18.9374 55.4898C18.9374 63.8339 25.6938 70.6211 34.0001 70.6211ZM34.0001 42.2316C41.2892 42.2316 47.1981 48.1673 47.1981 55.4898C47.1981 62.8122 41.265 68.748 34.0001 68.748C26.7351 68.748 20.8021 62.7878 20.8021 55.4898C20.8021 48.1917 26.7351 42.2316 34.0001 42.2316Z" fill="#23A6F0"/>
<path d="M34 71.2291C25.3547 71.2291 18.3319 64.1743 18.3319 55.4895C18.3319 46.8048 25.3547 39.75 34 39.75C42.6453 39.75 49.6681 46.8048 49.6681 55.4895C49.6681 64.1743 42.6453 71.2291 34 71.2291ZM34 40.9907C26.0328 40.9907 19.5427 47.5103 19.5427 55.5139C19.5427 63.5174 26.0328 70.0371 34 70.0371C41.9672 70.0371 48.4573 63.5174 48.4573 55.5139C48.4573 47.5103 41.9672 40.9907 34 40.9907ZM34 69.3802C26.396 69.3802 20.1966 63.1525 20.1966 55.5139C20.1966 47.8752 26.396 41.6475 34 41.6475C41.604 41.6475 47.8034 47.8752 47.8034 55.5139C47.8034 63.1525 41.604 69.3802 34 69.3802ZM34 42.8639C27.0499 42.8639 21.4074 48.532 21.4074 55.5139C21.4074 62.4957 27.0499 68.1639 34 68.1639C40.9501 68.1639 46.5926 62.4957 46.5926 55.5139C46.5926 48.532 40.9501 42.8639 34 42.8639Z" fill="#23A6F0"/>
<path d="M38.2378 49.4812V59.9905H27.7521V49.4812H38.2378ZM38.4316 49.2866H27.5583V60.1851H38.4316V49.2866Z" fill="#23A6F0"/>
<path fill-rule="evenodd" clip-rule="evenodd" d="M29.4472 62.5449L29.2777 60.769H28.6723C28.6723 60.769 28.5996 61.0366 28.5754 61.2313C28.5512 61.4259 28.5027 61.7421 28.5027 61.7421C28.5027 61.7421 28.4543 61.4259 28.4301 61.2313C28.4059 61.061 28.3574 60.769 28.3574 60.769H27.7763L27.5825 62.5449H28.0911C28.0911 62.5449 28.0911 62.2043 28.1153 61.9854C28.1153 61.7664 28.1153 61.4259 28.1153 61.4259C28.1153 61.4259 28.1637 61.7664 28.1879 61.9854C28.2364 62.2043 28.2848 62.5449 28.2848 62.5449H28.6723C28.6723 62.5449 28.7449 62.18 28.7933 61.9367C28.8176 61.7421 28.866 61.4259 28.866 61.4259C28.866 61.4259 28.866 61.7421 28.866 61.9367C28.866 62.18 28.9144 62.5449 28.9144 62.5449H29.423" fill="#23A6F0"/>
<path fill-rule="evenodd" clip-rule="evenodd" d="M30.4885 61.1826V60.769H29.6167V62.5449H30.4885V62.107H30.0768V61.8394H30.4643V61.4259H30.0768V61.1826H30.4885Z" fill="#23A6F0"/>
<path fill-rule="evenodd" clip-rule="evenodd" d="M31.6993 61.1826V60.769H30.6823V61.1826H30.9486V62.5449H31.4087V61.1826H31.6993Z" fill="#23A6F0"/>
<path fill-rule="evenodd" clip-rule="evenodd" d="M35.9373 61.6693V61.499H35.2834V61.8639H35.453V61.9126C35.453 61.9126 35.3561 62.1315 35.2834 62.1072C35.0897 62.1072 35.1139 61.7179 35.1139 61.5963C35.1139 61.4017 35.1139 61.1098 35.3077 61.1098C35.3561 61.1098 35.4287 61.1827 35.453 61.28L35.9131 61.1098C35.7678 60.7935 35.574 60.6719 35.3319 60.6719C34.8233 60.6719 34.6538 61.1584 34.6538 61.6206C34.6538 62.0585 34.8233 62.4964 35.3319 62.5207C35.8162 62.5207 35.9615 62.0585 35.9615 61.6206" fill="#23A6F0"/>
<path fill-rule="evenodd" clip-rule="evenodd" d="M38.3347 61.9608C38.3347 61.5229 37.8746 61.4499 37.8746 61.2553C37.8746 61.2067 37.923 61.158 37.9957 61.158C38.0925 61.158 38.1652 61.2067 38.2136 61.2553L38.2863 61.3283V60.7931H38.2378C38.2378 60.7931 38.0683 60.6958 37.9472 60.6958C37.6324 60.6958 37.4387 60.9634 37.4145 61.2796C37.4145 61.6932 37.8746 61.8148 37.8504 61.9608C37.8504 62.0095 37.8504 62.1068 37.7051 62.1068C37.6809 62.1068 37.5356 62.1068 37.4387 61.9608L37.3903 61.9121V62.4473H37.4629C37.4629 62.4473 37.6324 62.5203 37.7535 62.5203C38.1168 62.5203 38.2863 62.2284 38.3105 61.9121" fill="#23A6F0"/>
<path fill-rule="evenodd" clip-rule="evenodd" d="M33.1281 62.5449L32.7891 61.7908H32.8375C33.007 61.6935 33.0555 61.5232 33.0555 61.3529C33.0555 61.0123 32.9344 60.769 32.3532 60.769H31.8931V62.5449H32.3774V61.8151C32.3774 61.8151 32.4743 62.107 32.5469 62.2773C32.5953 62.3746 32.6438 62.5206 32.6438 62.5206H33.1523M32.5953 61.3286C32.5953 61.3286 32.5227 61.5718 32.4258 61.5718H32.3774V61.1339H32.4258C32.4258 61.1339 32.6196 61.2069 32.6196 61.3529L32.5953 61.3286Z" fill="#23A6F0"/>
<path fill-rule="evenodd" clip-rule="evenodd" d="M34.4843 61.6688C34.4843 61.2066 34.2663 60.6957 33.7578 60.7201C33.3219 60.7201 33.1282 61.2066 33.1282 61.6445C33.1282 62.0824 33.3219 62.5689 33.8062 62.5689C34.2663 62.5689 34.4843 62.1067 34.4843 61.6688ZM33.9758 61.6688C33.9758 61.8634 33.9273 62.1554 33.782 62.1554C33.6367 62.1554 33.5883 61.8634 33.5883 61.6688C33.5883 61.4742 33.6367 61.2066 33.782 61.2066C33.9273 61.2066 33.9758 61.4985 33.9758 61.6932V61.6688Z" fill="#23A6F0"/>
<path fill-rule="evenodd" clip-rule="evenodd" d="M37.3176 62.5449L36.9301 60.769H36.3489L35.9373 62.5449H36.4216L36.47 62.326H36.7848V62.5449H37.3176ZM36.7364 61.9367H36.5427L36.6638 61.1826L36.7606 61.9367H36.7364Z" fill="#23A6F0"/>
<path fill-rule="evenodd" clip-rule="evenodd" d="M29.4472 62.5449L29.2777 60.769H28.6723C28.6723 60.769 28.5996 61.0366 28.5754 61.2313C28.5512 61.4259 28.5027 61.7421 28.5027 61.7421C28.5027 61.7421 28.4543 61.4259 28.4301 61.2313C28.4059 61.061 28.3574 60.769 28.3574 60.769H27.7763L27.5825 62.5449H28.0911C28.0911 62.5449 28.0911 62.2043 28.1153 61.9854C28.1153 61.7664 28.1153 61.4259 28.1153 61.4259C28.1153 61.4259 28.1637 61.7664 28.1879 61.9854C28.2364 62.2043 28.2848 62.5449 28.2848 62.5449H28.6723C28.6723 62.5449 28.7449 62.18 28.7933 61.9367C28.8176 61.7421 28.866 61.4259 28.866 61.4259C28.866 61.4259 28.866 61.7421 28.866 61.9367C28.866 62.18 28.9144 62.5449 28.9144 62.5449H29.423" fill="#23A6F0"/>
<path fill-rule="evenodd" clip-rule="evenodd" d="M30.4885 61.1826V60.769H29.6167V62.5449H30.4885V62.107H30.0768V61.8394H30.4643V61.4259H30.0768V61.1826H30.4885Z" fill="#23A6F0"/>
<path fill-rule="evenodd" clip-rule="evenodd" d="M31.6993 61.1826V60.769H30.6823V61.1826H30.9486V62.5449H31.4087V61.1826H31.6993Z" fill="#23A6F0"/>
<path fill-rule="evenodd" clip-rule="evenodd" d="M35.9373 61.6693V61.499H35.2834V61.8639H35.453V61.9126C35.453 61.9126 35.3561 62.1315 35.2834 62.1072C35.0897 62.1072 35.1139 61.7179 35.1139 61.5963C35.1139 61.4017 35.1139 61.1098 35.3077 61.1098C35.3561 61.1098 35.4287 61.1827 35.453 61.28L35.9131 61.1098C35.7678 60.7935 35.574 60.6719 35.3319 60.6719C34.8233 60.6719 34.6538 61.1584 34.6538 61.6206C34.6538 62.0585 34.8233 62.4964 35.3319 62.5207C35.8162 62.5207 35.9615 62.0585 35.9615 61.6206" fill="#23A6F0"/>
<path fill-rule="evenodd" clip-rule="evenodd" d="M38.3347 61.9608C38.3347 61.5229 37.8746 61.4499 37.8746 61.2553C37.8746 61.2067 37.923 61.158 37.9957 61.158C38.0925 61.158 38.1652 61.2067 38.2136 61.2553L38.2863 61.3283V60.7931H38.2378C38.2378 60.7931 38.0683 60.6958 37.9472 60.6958C37.6324 60.6958 37.4387 60.9634 37.4145 61.2796C37.4145 61.6932 37.8746 61.8148 37.8504 61.9608C37.8504 62.0095 37.8504 62.1068 37.7051 62.1068C37.6809 62.1068 37.5356 62.1068 37.4387 61.9608L37.3903 61.9121V62.4473H37.4629C37.4629 62.4473 37.6324 62.5203 37.7535 62.5203C38.1168 62.5203 38.2863 62.2284 38.3105 61.9121" fill="#23A6F0"/>
<path fill-rule="evenodd" clip-rule="evenodd" d="M33.1281 62.5449L32.7891 61.7908H32.8375C33.007 61.6935 33.0555 61.5232 33.0555 61.3529C33.0555 61.0123 32.9344 60.769 32.3532 60.769H31.8931V62.5449H32.3774V61.8151C32.3774 61.8151 32.4743 62.107 32.5469 62.2773C32.5953 62.3746 32.6438 62.5206 32.6438 62.5206H33.1523M32.5953 61.3286C32.5953 61.3286 32.5227 61.5718 32.4258 61.5718H32.3774V61.1339H32.4258C32.4258 61.1339 32.6196 61.2069 32.6196 61.3529L32.5953 61.3286Z" fill="#23A6F0"/>
<path fill-rule="evenodd" clip-rule="evenodd" d="M34.4843 61.6688C34.4843 61.2066 34.2663 60.6957 33.7578 60.7201C33.3219 60.7201 33.1282 61.2066 33.1282 61.6445C33.1282 62.0824 33.3219 62.5689 33.8062 62.5689C34.2663 62.5689 34.4843 62.1067 34.4843 61.6688ZM33.9758 61.6688C33.9758 61.8634 33.9273 62.1554 33.782 62.1554C33.6367 62.1554 33.5883 61.8634 33.5883 61.6688C33.5883 61.4742 33.6367 61.2066 33.782 61.2066C33.9273 61.2066 33.9758 61.4985 33.9758 61.6932V61.6688Z" fill="#23A6F0"/>
<path fill-rule="evenodd" clip-rule="evenodd" d="M37.3176 62.5449L36.9301 60.769H36.3489L35.9373 62.5449H36.4216L36.47 62.326H36.7848V62.5449H37.3176ZM36.7364 61.9367H36.5427L36.6638 61.1826L36.7606 61.9367H36.7364Z" fill="#23A6F0"/>
<path fill-rule="evenodd" clip-rule="evenodd" d="M27.6794 60.112L31.2151 49.3838L33.0071 54.6871L34.7749 49.3838L38.3589 60.112H35.6951L34.339 56.1224L33.0071 60.112L31.6752 56.098L30.3675 60.112H27.6794Z" fill="#23A6F0"/>
<path d="M38.7948 54.0548C38.7948 54.0548 38.9401 53.8115 39.0127 53.7386C39.0854 53.6656 39.4244 53.398 39.715 53.2763C39.933 53.2034 40.5868 53.0087 41.2649 53.1304C41.9429 53.252 42.4515 53.6169 42.7663 53.8845C43.0811 54.1521 43.2506 54.3711 43.2506 54.3711C43.2506 54.3711 43.0811 54.2494 42.9358 54.2008C42.7905 54.1521 42.621 54.2008 42.403 54.3224C42.1609 54.444 41.3617 54.8576 40.829 54.9306C40.2236 55.0036 39.5697 54.9306 39.2065 54.8089C38.9401 54.7116 38.7463 54.5657 38.6979 54.4684C38.6737 54.3954 38.7706 54.1278 38.819 54.0305" fill="#23A6F0"/>
<path d="M37.7777 55.0277C37.7777 55.0277 37.1481 54.7601 36.7606 54.2736C36.3731 53.787 36.2763 53.5194 36.1067 53.0086C35.9372 52.4734 35.9372 52.0111 35.913 51.7192C35.913 51.4273 35.913 51.33 35.8888 51.1597C35.8888 50.9164 35.6708 50.7461 35.574 50.6975C35.4771 50.6488 35.3802 50.6245 35.3802 50.6245C35.3802 50.6245 35.7193 50.6245 35.9614 50.6732C36.2036 50.7218 36.6879 50.8191 37.1238 51.184C37.5597 51.5489 37.9956 52.0111 38.2136 52.8626C38.3831 53.5194 38.3347 53.8843 38.2862 54.1519C38.2378 54.3952 38.1167 54.6628 37.9956 54.8331C37.8988 54.9547 37.8503 55.052 37.7535 55.052" fill="#23A6F0"/>
<path d="M38.5768 51.7436C38.262 51.1841 38.0925 50.4057 38.0683 49.7245C38.0683 49.3353 38.1409 48.8487 38.1894 48.6055C38.262 48.3622 38.3347 48.1919 38.2862 47.9486C38.2378 47.7297 38.0925 47.4864 37.923 47.3891C37.7292 47.2918 38.6737 47.7054 38.9159 47.9C39.1822 48.0946 39.5939 48.5082 39.7634 48.8001C39.9329 49.092 40.2962 49.7002 40.3931 50.3084C40.4899 50.9165 40.3931 51.4031 40.1751 51.8653C40.0056 52.2302 39.7634 52.4248 39.6666 52.4978C39.5697 52.5708 39.4486 52.6437 39.376 52.6437C39.3033 52.6437 38.8916 52.2788 38.5526 51.7193" fill="#23A6F0"/>
<path d="M38.698 54.4197C38.698 54.4197 38.8433 54.0062 38.8917 53.9089C38.9402 53.8116 39.037 53.6169 39.0855 53.544C39.1581 53.398 39.2308 53.2034 39.3034 53.0331C39.3518 52.9358 39.4003 52.7412 39.4245 52.6682L39.3761 52.5952C39.1823 53.1791 39.1339 53.252 39.0855 53.398C38.9402 53.7386 38.7949 53.9575 38.6496 54.2008C38.5285 54.4197 38.1652 54.9063 38.0926 55.0036C38.0199 55.1009 37.802 55.3928 37.7778 55.3928L37.8262 54.9793C37.802 54.9793 37.7535 54.9793 37.7535 54.9793C37.7535 54.9793 37.7051 55.4658 37.5114 55.7334C37.4387 55.8307 37.1966 56.074 37.0513 56.2199L37.0997 56.3902L37.2208 56.2686C37.2208 56.2686 37.4872 55.9523 37.6325 55.782C37.7778 55.6118 38.141 55.1009 38.2137 55.0036C38.2863 54.9063 38.3347 54.809 38.4558 54.6873C38.5043 54.6143 38.6253 54.517 38.6738 54.4441" fill="#23A6F0"/>
<path d="M37.9956 52.814H37.9714C37.9714 52.814 37.9714 53.0573 37.8746 53.3492C37.8261 53.4952 37.7777 53.6168 37.7293 53.7141C37.6808 53.3979 37.6082 53.1789 37.5113 52.887C37.5113 52.887 37.584 52.7167 37.584 52.3761C37.584 52.2058 37.584 52.0842 37.584 52.0599H37.5355C37.5355 52.0599 37.5355 52.1815 37.5355 52.3761C37.5355 52.5221 37.5355 52.5951 37.4629 52.741C37.4144 52.6194 37.3902 52.5464 37.3176 52.4248C37.0996 51.9626 36.8575 51.622 36.8575 51.5977H36.8333C36.8333 51.5977 37.0512 51.9869 37.2692 52.4491C37.3176 52.5707 37.3418 52.6437 37.3902 52.741C37.3418 52.7167 37.2691 52.668 37.2207 52.6194C37.0754 52.4734 36.9059 52.3031 36.9059 52.3031C36.9059 52.3031 37.0996 52.5707 37.2449 52.7167C37.3418 52.814 37.4387 52.8627 37.4871 52.887C37.6082 53.1789 37.6566 53.4222 37.705 53.7628C37.6324 53.7141 37.5113 53.6411 37.3902 53.5438C37.2449 53.3979 36.9543 53.0329 36.9543 53.0329H36.9301C36.9301 53.0329 37.1723 53.4222 37.3176 53.5681C37.4871 53.7141 37.7293 53.8844 37.7293 53.8844C37.7293 53.8844 37.7535 54.0304 37.7777 54.079C37.8503 54.5899 37.8261 55.0278 37.8261 55.0521H37.8988C37.8988 55.0521 37.923 54.8088 37.8988 54.2006C37.8988 54.1277 37.8746 53.9087 37.8503 53.8601C37.8988 53.7871 37.9714 53.6168 38.0199 53.4222C38.1167 53.1059 38.0925 52.8383 38.0925 52.8383" fill="white"/>
<path d="M40.0299 50.576H40.0057C40.0057 50.576 39.933 50.7949 39.7877 51.0625C39.7151 51.1842 39.6424 51.3058 39.5698 51.3788C39.5698 51.0625 39.5698 50.8193 39.5214 50.5274C39.5214 50.5274 39.6182 50.3571 39.7151 50.0651C39.7635 49.8948 39.7635 49.7732 39.7635 49.7732H39.7393C39.7393 49.7732 39.7151 49.8705 39.6667 50.0651C39.6182 50.2111 39.594 50.2841 39.5214 50.4057C39.5214 50.2841 39.4971 50.1868 39.4487 50.0651C39.3276 49.5786 39.1823 49.165 39.1581 49.165H39.1097C39.1097 49.165 39.255 49.5786 39.3761 50.0651C39.4003 50.1868 39.4245 50.2598 39.4245 50.3814C39.4003 50.3571 39.3276 50.2841 39.2792 50.2111C39.1581 50.0408 39.037 49.8219 39.037 49.8219H39.0128C39.0128 49.8219 39.1581 50.1138 39.2792 50.2841C39.3518 50.4057 39.4245 50.4787 39.4729 50.503C39.5214 50.8193 39.5214 51.0625 39.4971 51.4031C39.4245 51.3301 39.3276 51.2328 39.2308 51.1112C39.1097 50.9409 38.9159 50.503 38.9159 50.503H38.8917C38.8917 50.503 39.037 50.9409 39.1581 51.1112C39.2792 51.2815 39.4971 51.5004 39.4971 51.5004C39.4971 51.5004 39.4971 51.6464 39.4971 51.695C39.4487 52.2059 39.3518 52.6195 39.3518 52.6195H39.4003C39.4003 52.6195 39.4729 52.4492 39.5698 51.841C39.5698 51.768 39.594 51.5491 39.594 51.5004C39.6424 51.4274 39.7635 51.2815 39.8362 51.1112C39.9815 50.8436 40.0299 50.5517 40.0299 50.5517" fill="white"/>
<path d="M40.4899 53.325C40.4899 53.325 40.272 53.471 40.054 53.6656C39.9572 53.7629 39.8603 53.8602 39.7877 53.9332C40.0783 53.8602 40.3204 53.8116 40.611 53.7872C40.611 53.7872 40.7321 53.6413 41.0227 53.4953C41.168 53.4223 41.2891 53.3737 41.3133 53.3737C41.3133 53.3737 41.2164 53.4467 41.0469 53.544C40.9016 53.6169 40.8532 53.6656 40.7563 53.7629C40.9258 53.7629 41.0227 53.7629 41.0954 53.7629C41.7008 53.7872 42.0398 53.9332 42.0398 53.9332V53.9819C42.0398 53.9819 41.386 53.8359 41.0954 53.8359C40.9743 53.8359 40.9016 53.8359 40.7805 53.8359C40.829 53.8602 40.9016 53.9089 40.9743 53.9332C41.168 54.0062 41.4102 54.0792 41.4102 54.0792C41.4102 54.0792 41.0954 54.0305 40.9258 53.9575C40.7805 53.9089 40.7079 53.8602 40.6595 53.8116C40.3446 53.8359 40.1025 53.8845 39.7634 53.9819C39.8603 54.0305 39.9572 54.1278 40.1025 54.1765C40.2962 54.2494 40.7563 54.3711 40.7563 54.3711C40.7563 54.3711 40.3204 54.3711 40.1267 54.2738C39.933 54.2008 39.6666 54.0305 39.6666 54.0305C39.6666 54.0305 39.4244 54.1035 39.3033 54.1521C39.0612 54.2738 38.819 54.4197 38.6737 54.517V54.4684C38.6737 54.4684 38.7221 54.3224 39.2549 54.0792C39.4728 53.9818 39.6181 53.9332 39.6908 53.9332C39.7392 53.8602 39.8603 53.7386 40.0056 53.5926C40.2478 53.3737 40.4899 53.2764 40.5142 53.2764" fill="white"/>
<path fill-rule="evenodd" clip-rule="evenodd" d="M39.0854 61.0124C39.0854 61.0124 39.1338 61.0854 39.158 61.134H39.2549C39.2549 61.134 39.2549 61.0854 39.2065 61.0367V60.9881C39.2065 60.9881 39.2307 60.9637 39.2307 60.8908C39.2307 60.8908 39.2307 60.8178 39.1823 60.7935C39.1823 60.7935 39.1338 60.7935 39.0854 60.7935H38.9885C38.9885 60.7935 38.9885 60.8908 38.9885 61.0367C38.9885 61.0854 38.9885 61.1097 38.9885 61.134C38.9885 61.134 39.037 61.134 39.0612 61.134C39.0612 61.134 39.0612 61.0611 39.0612 61.0124M39.0612 60.8664C39.0612 60.8664 39.1096 60.8664 39.1096 60.9151C39.1096 60.9151 39.1096 60.9394 39.1096 60.9637C39.1096 60.9637 39.0854 60.9637 39.0612 60.9637V60.8664Z" fill="#23A6F0"/>
<path d="M39.1096 61.3284C38.9159 61.3284 38.7463 61.1582 38.7463 60.9635C38.7463 60.7689 38.9159 60.5986 39.1096 60.5986C39.3033 60.5986 39.4728 60.7689 39.4728 60.9635C39.4728 61.1582 39.3033 61.3284 39.1096 61.3284ZM39.1096 60.6473C38.9401 60.6473 38.7948 60.7932 38.7948 60.9635C38.7948 61.1338 38.9401 61.2798 39.1096 61.2798C39.2791 61.2798 39.4244 61.1338 39.4244 60.9635C39.4244 60.7932 39.2791 60.6473 39.1096 60.6473Z" fill="#23A6F0"/>
</g>
<defs>
<clipPath id="clip0_398_1502">
<rect width="68" height="75" fill="white"/>
</clipPath>
</defs>
</svg>
