<svg width="31" height="31" viewBox="0 0 31 31" fill="none" xmlns="http://www.w3.org/2000/svg">
<path d="M25.5594 13.362C25.5313 15.5466 24.9119 17.7593 23.6507 19.7806C23.4818 20.0509 23.5099 20.186 23.7295 20.4056C25.7677 22.4269 27.7947 24.4539 29.816 26.4865C31.004 27.6857 30.8801 29.4706 29.5626 30.4221C28.5379 31.1597 27.1979 31.0302 26.2407 30.0843C24.7092 28.5697 23.189 27.0382 21.6688 25.518C21.1452 24.9944 20.6159 24.4764 20.1035 23.9415C19.9234 23.7557 19.7995 23.7388 19.5743 23.8796C17.446 25.214 15.1263 25.8502 12.6151 25.8108C6.86646 25.7264 1.77094 21.588 0.504098 15.9801C-1.06679 9.01531 3.29678 2.19689 10.2785 0.693567C17.1757 -0.78723 24.0617 3.83534 25.3398 10.8001C25.4806 11.5828 25.5594 12.371 25.5594 13.3564V13.362ZM12.8628 22.0047C17.7557 22.0047 21.742 18.024 21.7476 13.1311C21.7476 8.23831 17.7782 4.24635 12.8854 4.23509C7.97565 4.22383 3.97806 8.21579 3.97806 13.1255C3.97806 18.0127 7.97002 21.999 12.8572 21.999L12.8628 22.0047Z" fill="#23A6F0"/>
</svg>
