<svg width="34" height="40" viewBox="0 0 34 40" fill="none" xmlns="http://www.w3.org/2000/svg">
<path d="M0.950439 23.8174C0.950439 19.6959 0.950439 15.5745 0.950439 11.453C0.950439 9.6344 2.10467 8.18176 3.83884 7.81015C4.14288 7.74258 4.46381 7.73695 4.77912 7.73132C5.68561 7.72006 6.58648 7.71443 7.49297 7.73132C7.82517 7.73695 7.94341 7.65813 7.93214 7.30341C7.90962 6.3575 7.92088 5.4116 7.92651 4.47132C7.94341 2.32613 9.48614 0.76651 11.6426 0.760879C15.9273 0.755249 20.2121 0.760879 24.5024 0.755249C24.8571 0.755249 25.1274 0.862227 25.3808 1.1156C28.0665 3.81256 30.7634 6.50389 33.4548 9.19523C33.7138 9.45423 33.832 9.74138 33.832 10.113C33.832 16.481 33.832 22.849 33.8264 29.217C33.8264 31.3621 32.278 32.9161 30.1328 32.9499C29.1588 32.9668 28.1904 32.9612 27.2163 32.9499C26.9291 32.9499 26.8447 33.04 26.8503 33.3215C26.8672 34.2787 26.8616 35.2415 26.8503 36.1987C26.8334 38.3495 25.2963 39.9147 23.1455 39.9147C16.9802 39.926 10.8205 39.926 4.65525 39.9147C2.51569 39.9147 0.95607 38.3326 0.95607 36.1874C0.950439 32.0659 0.95607 27.9445 0.95607 23.823L0.950439 23.8174ZM9.74514 16.8357C9.74514 20.9008 9.74514 24.9716 9.74514 29.0368C9.74514 30.4106 10.4433 31.12 11.8059 31.12C17.8754 31.12 23.9394 31.12 30.009 31.12C31.2646 31.12 32.0078 30.3825 32.0078 29.1325C32.0078 23.1755 32.0078 17.2186 32.0134 11.2616C32.0134 10.9407 31.9289 10.8393 31.6024 10.8449C30.0822 10.8618 28.562 10.8562 27.0417 10.8506C25.0711 10.8393 23.7198 9.48238 23.7142 7.50611C23.7142 5.99716 23.7029 4.49384 23.7198 2.98489C23.7198 2.64144 23.6297 2.55698 23.2919 2.55698C19.4576 2.56824 15.6233 2.56261 11.789 2.56824C10.4546 2.56824 9.7395 3.28893 9.7395 4.62897C9.7395 8.69412 9.7395 12.7649 9.7395 16.8301L9.74514 16.8357ZM7.92651 19.741C7.92651 16.4922 7.92088 13.2491 7.93777 10.0004C7.93777 9.60625 7.81954 9.52179 7.45356 9.53305C6.56396 9.55557 5.67435 9.53305 4.78475 9.54431C3.50101 9.55557 2.77469 10.2819 2.76906 11.56C2.76906 12.6129 2.76906 13.6714 2.76906 14.7243C2.76906 21.8468 2.76906 28.9692 2.76906 36.0917C2.76906 37.3304 3.50664 38.0961 4.71155 38.0961C10.8487 38.0961 16.9858 38.0961 23.1174 38.0961C24.266 38.0961 25.0204 37.3304 25.0261 36.1874C25.0261 35.2584 25.0035 34.3237 25.0373 33.3947C25.0486 33.0118 24.9191 32.9499 24.5756 32.9499C20.3585 32.9612 16.1356 32.9555 11.9185 32.9555C11.5356 32.9555 11.1527 32.9555 10.7755 32.8655C9.06386 32.4657 7.93214 31.0525 7.92651 29.2733C7.91525 26.0977 7.92651 22.9165 7.92651 19.741ZM25.5328 3.9308C25.5328 5.1526 25.5328 6.32372 25.5328 7.50048C25.5328 8.4858 26.0733 9.02069 27.0586 9.02632C28.1284 9.03195 29.1926 9.02632 30.2623 9.02632C30.3749 9.02632 30.5101 9.08262 30.5776 8.97564L25.5328 3.93643V3.9308Z" fill="#23A6F0"/>
<path d="M20.786 9.23473C20.7972 9.85971 20.4819 10.1919 19.9865 10.2313C19.4459 10.2707 19.0631 9.98921 18.9786 9.4881C18.7984 8.42959 17.8582 7.86654 16.8109 8.21C16.1521 8.42395 15.7411 8.98137 15.7974 9.58382C15.8537 10.2144 16.4224 10.7381 17.1431 10.8056C17.5766 10.845 18.0158 10.8563 18.4437 10.9745C19.9808 11.3968 20.9549 12.658 20.7578 14.0656C20.5833 15.3099 19.7556 16.0306 18.6183 16.4191C18.3142 16.5205 18.1791 16.6275 18.196 16.9765C18.2241 17.5621 17.8638 17.9168 17.3064 17.9225C16.8785 17.9225 16.3098 17.6635 16.3886 16.9653C16.428 16.6218 16.2816 16.4867 15.9663 16.3628C14.874 15.9349 14.1365 15.1861 13.9732 13.9699C13.9 13.4238 14.204 13.0409 14.7558 12.9677C15.2569 12.9001 15.7524 13.2098 15.758 13.6996C15.7693 14.7976 17.2163 15.5126 18.3367 14.8257C19.1926 14.2965 19.1926 13.2042 18.348 12.658C18.0158 12.4441 17.6442 12.3821 17.2501 12.3765C16.4618 12.3596 15.7411 12.1231 15.1105 11.6502C13.5678 10.4959 13.5903 8.41832 15.1499 7.29224C15.2851 7.19653 15.4146 7.07829 15.5666 7.03887C16.169 6.86996 16.5012 6.57718 16.4111 5.86775C16.3605 5.46799 16.8391 5.17521 17.3289 5.1921C17.8187 5.20899 18.2298 5.51303 18.1791 5.95221C18.1172 6.53777 18.3818 6.70668 18.8773 6.89811C19.9865 7.33166 20.6846 8.14807 20.7803 9.24599L20.786 9.23473Z" fill="#23A6F0"/>
<path d="M20.6396 25.4614C22.8186 25.4614 24.9919 25.4614 27.1709 25.4614C27.2666 25.4614 27.3623 25.4614 27.458 25.4614C28.1337 25.4727 28.5503 25.8161 28.5672 26.3623C28.5785 26.9253 28.1506 27.2969 27.458 27.2969C23.7645 27.2969 20.0653 27.2969 16.3718 27.2969C15.4822 27.2969 14.5926 27.3138 13.703 27.2913C12.9372 27.2688 12.498 26.5875 12.8246 25.9682C13.0273 25.5853 13.3764 25.4671 13.7874 25.4671C14.6883 25.4671 15.5948 25.4671 16.4956 25.4671C17.8807 25.4671 19.2602 25.4671 20.6452 25.4671L20.6396 25.4614Z" fill="#23A6F0"/>
<path d="M18.0894 22.483C16.6537 22.483 15.2123 22.483 13.7765 22.483C13.1178 22.483 12.6955 22.117 12.7068 21.5596C12.718 21.0191 13.129 20.67 13.7709 20.67C16.6593 20.67 19.5477 20.67 22.4361 20.67C23.078 20.67 23.4721 21.0247 23.4777 21.5765C23.4777 22.1339 23.0892 22.4773 22.4417 22.483C20.9891 22.483 19.5364 22.483 18.0894 22.483Z" fill="#23A6F0"/>
</svg>
